# https://github.com/mikedh/trimesh
mtllib material.mtl
usemtl material_0
v -0.03726697 0.22270941 -0.16363683
v -0.07523681 0.21119113 -0.16363683
v -0.11022588 0.19248957 -0.16363683
v -0.14089835 0.16731863 -0.16363683
v -0.16606929 0.13664616 -0.16363683
v -0.18477085 0.10165709 -0.16363683
v -0.19628913 0.06368725 -0.16363683
v -0.20017885 0.02420126 -0.16363683
v -0.19628913 -0.01528472 -0.16363683
v -0.18477085 -0.05325456 -0.16363683
v -0.16606929 -0.08824363 -0.16363683
v -0.14089835 -0.11891610 -0.16363683
v -0.11022588 -0.14408704 -0.16363683
v -0.07523681 -0.16278860 -0.16363683
v -0.03726697 -0.17430688 -0.16363683
v 0.00221902 -0.17819660 -0.16363683
v 0.04170500 -0.17430688 -0.16363683
v 0.07967484 -0.16278860 -0.16363683
v 0.11466391 -0.14408704 -0.16363683
v 0.14533639 -0.11891610 -0.16363683
v 0.17050732 -0.08824363 -0.16363683
v 0.18920888 -0.05325456 -0.16363683
v 0.20072716 -0.01528472 -0.16363683
v 0.20461688 0.02420126 -0.16363683
v 0.20072716 0.06368725 -0.16363683
v 0.18920888 0.10165709 -0.16363683
v 0.17050732 0.13664616 -0.16363683
v 0.14533639 0.16731863 -0.16363683
v 0.11466391 0.19248957 -0.16363683
v 0.07967484 0.21119113 -0.16363683
v 0.04170500 0.22270941 -0.16363683
v 0.00221902 0.22659913 -0.16363683
vn 0.00000000 0.00000000 1.00000000
vn 0.00000000 0.00000000 1.00000000
vn 0.00000000 0.00000000 1.00000000
vn 0.00000000 0.00000000 1.00000000
vn 0.00000000 0.00000000 1.00000000
vn 0.00000000 0.00000000 1.00000000
vn 0.00000000 0.00000000 1.00000000
vn 0.00000000 0.00000000 1.00000000
vn 0.00000000 0.00000000 1.00000000
vn 0.00000000 0.00000000 1.00000000
vn 0.00000000 0.00000000 1.00000000
vn 0.00000000 0.00000000 1.00000000
vn 0.00000000 0.00000000 1.00000000
vn 0.00000000 0.00000000 1.00000000
vn 0.00000000 0.00000000 1.00000000
vn 0.00000000 0.00000000 1.00000000
vn 0.00000000 0.00000000 1.00000000
vn 0.00000000 0.00000000 1.00000000
vn 0.00000000 0.00000000 1.00000000
vn 0.00000000 0.00000000 1.00000000
vn 0.00000000 0.00000000 1.00000000
vn 0.00000000 0.00000000 1.00000000
vn 0.00000000 0.00000000 1.00000000
vn 0.00000000 0.00000000 1.00000000
vn 0.00000000 0.00000000 1.00000000
vn 0.00000000 0.00000000 1.00000000
vn 0.00000000 0.00000000 1.00000000
vn 0.00000000 0.00000000 1.00000000
vn 0.00000000 0.00000000 1.00000000
vn 0.00000000 0.00000000 1.00000000
vn 0.00000000 0.00000000 1.00000000
vn 0.00000000 0.00000000 1.00000000
vt 0.50000000 0.00000000
vt 0.59754500 0.00960700
vt 0.69134200 0.03806000
vt 0.77778500 0.08426500
vt 0.85355300 0.14644700
vt 0.91573500 0.22221500
vt 0.96194000 0.30865800
vt 0.99039300 0.40245500
vt 1.00000000 0.50000000
vt 0.99039300 0.59754500
vt 0.96194000 0.69134200
vt 0.91573500 0.77778500
vt 0.85355300 0.85355300
vt 0.77778500 0.91573500
vt 0.69134200 0.96194000
vt 0.59754500 0.99039300
vt 0.50000000 1.00000000
vt 0.40245500 0.99039300
vt 0.30865800 0.96194000
vt 0.22221500 0.91573500
vt 0.14644600 0.85355300
vt 0.08426500 0.77778500
vt 0.03806000 0.69134100
vt 0.00960700 0.59754500
vt 0.00000000 0.50000000
vt 0.00960700 0.40245400
vt 0.03806000 0.30865800
vt 0.08426600 0.22221400
vt 0.14644700 0.14644600
vt 0.22221500 0.08426500
vt 0.30865900 0.03806000
vt 0.40245600 0.00960700
f 9/9/9 7/7/7 8/8/8
f 7/7/7 9/9/9 10/10/10
f 7/7/7 10/10/10 6/6/6
f 6/6/6 10/10/10 11/11/11
f 6/6/6 11/11/11 5/5/5
f 5/5/5 11/11/11 12/12/12
f 5/5/5 12/12/12 4/4/4
f 4/4/4 12/12/12 13/13/13
f 4/4/4 13/13/13 3/3/3
f 3/3/3 13/13/13 2/2/2
f 2/2/2 13/13/13 14/14/14
f 2/2/2 14/14/14 15/15/15
f 2/2/2 15/15/15 1/1/1
f 1/1/1 15/15/15 32/32/32
f 32/32/32 15/15/15 16/16/16
f 32/32/32 16/16/16 31/31/31
f 31/31/31 16/16/16 17/17/17
f 31/31/31 17/17/17 30/30/30
f 30/30/30 17/17/17 18/18/18
f 30/30/30 18/18/18 19/19/19
f 30/30/30 19/19/19 29/29/29
f 29/29/29 19/19/19 20/20/20
f 29/29/29 20/20/20 28/28/28
f 28/28/28 20/20/20 21/21/21
f 28/28/28 21/21/21 27/27/27
f 27/27/27 21/21/21 22/22/22
f 27/27/27 22/22/22 26/26/26
f 26/26/26 22/22/22 25/25/25
f 25/25/25 22/22/22 23/23/23
f 25/25/25 23/23/23 24/24/24