# https://github.com/mikedh/trimesh
mtllib material.mtl
usemtl material_0
v 0.07271235 0.27148729 -0.13728095
v 0.27422334 0.29203620 -0.34964047
v -0.08767507 0.39520023 -0.34964047
v -0.09063376 0.39425080 -0.35384666
v 0.06901767 0.27110458 -0.49875985
v -0.17325257 0.21030058 -0.49875985
v 0.09211311 -0.34679770 -0.34964047
v -0.06827432 -0.22308476 -0.13728095
v -0.26978531 -0.24362999 -0.34964047
v -0.24733755 -0.03843167 -0.49783250
v -0.27412031 -0.23816892 -0.35301131
v -0.36523614 0.12496228 -0.35301131
v 0.36843403 -0.08341920 -0.34964047
v 0.18112769 -0.16048863 -0.13728095
v 0.09812984 -0.34528891 -0.34964047
v -0.06831848 -0.22323932 -0.49783250
v 0.09123360 -0.34630826 -0.35301131
v -0.26878068 -0.24368151 -0.35301131
v 0.27853994 0.28757976 -0.34964047
v 0.25162102 0.08679372 -0.13728095
v 0.37013417 -0.07745398 -0.34964047
v 0.18123809 -0.16060638 -0.49783250
v 0.36756924 -0.08393807 -0.35301131
v 0.09867448 -0.34443884 -0.35301131
v -0.17347337 0.20998410 -0.13604816
v 0.06936359 0.27092794 -0.13604816
v -0.09066320 0.39436856 -0.34792929
v 0.25177558 0.08683420 -0.49783250
v 0.27855834 0.28657145 -0.35301131
v 0.36967418 -0.07655975 -0.35301131
v -0.27410191 -0.23917723 -0.34964047
v -0.24718299 -0.03839119 -0.13728095
v -0.36569614 0.12585651 -0.34964047
v -0.17680005 0.20900891 -0.49783250
v -0.36313121 0.13234060 -0.35301131
v -0.09423644 0.39284137 -0.35301131
v -0.24502653 -0.04101501 -0.13604816
v -0.27188657 -0.24134841 -0.34792929
v -0.07082453 -0.22084367 -0.13604816
v -0.17820580 0.20550191 -0.49875985
v -0.24668252 -0.03471123 -0.49875985
v -0.36465471 0.12878576 -0.35384666
v -0.24500445 -0.04140140 -0.49875985
v -0.07121461 -0.22081055 -0.49875985
v -0.27180193 -0.24126377 -0.35384666
v -0.06492555 -0.22252541 -0.13604816
v 0.09510124 -0.34596235 -0.34792929
v 0.17791140 -0.16158157 -0.13604816
v -0.06457964 -0.22270205 -0.49875985
v 0.17769060 -0.16189805 -0.49875985
v 0.09507180 -0.34584827 -0.35384666
v 0.25095863 0.08346704 -0.13604816
v 0.18231999 -0.15731282 -0.13604816
v 0.36920682 -0.08041635 -0.34792929
v 0.18264383 -0.15709938 -0.49875985
v 0.25112055 0.08311376 -0.49875985
v 0.36909274 -0.08038323 -0.35384666
v 0.07526257 0.26924620 -0.13604816
v 0.24946457 0.08941754 -0.13604816
v 0.27632460 0.28975094 -0.34792929
v -0.08679556 0.39471079 -0.35301131
v 0.27321871 0.29208404 -0.35301131
v 0.07275651 0.27164185 -0.49783250
v -0.36399600 0.13182173 -0.34964047
v -0.17668965 0.20889115 -0.13728095
v -0.09369181 0.39369144 -0.34964047
v -0.24652060 -0.03506451 -0.13604816
v -0.17788196 0.20571535 -0.13604816
v -0.36476879 0.12881888 -0.34792929
v 0.27623996 0.28966630 -0.35384666
v 0.24944249 0.08980393 -0.49875985
v 0.07565264 0.26921308 -0.49875985
v 0.07565264 0.26921308 -0.49875985
v 0.07186964 0.26852492 -0.50000000
v 0.06901767 0.27110458 -0.49875985
v 0.07275651 0.27164185 -0.49783250
v 0.07526257 0.26924620 -0.13604816
v 0.07271235 0.27148729 -0.13728095
v 0.06936359 0.27092794 -0.13604816
v 0.07186964 0.26852492 -0.13457618
v 0.24863289 0.08604301 -0.50000000
v 0.24944249 0.08980393 -0.49875985
v 0.25177558 0.08683420 -0.49783250
v 0.25112055 0.08311376 -0.49875985
v 0.24946457 0.08941754 -0.13604816
v 0.24863289 0.08604301 -0.13457618
v 0.25095863 0.08346704 -0.13604816
v 0.25162102 0.08679372 -0.13728095
v 0.17898227 -0.15827697 -0.50000000
v 0.18264383 -0.15709938 -0.49875985
v 0.18123809 -0.16060638 -0.49783250
v 0.17769060 -0.16189805 -0.49875985
v 0.18231999 -0.15731282 -0.13604816
v 0.17898227 -0.15827697 -0.13457618
v 0.17791140 -0.16158157 -0.13604816
v 0.18112769 -0.16048863 -0.13728095
v -0.06743161 -0.22012240 -0.50000000
v -0.06457964 -0.22270205 -0.49875985
v -0.06831848 -0.22323932 -0.49783250
v -0.07121461 -0.22081055 -0.49875985
v -0.06492555 -0.22252541 -0.13604816
v -0.06743161 -0.22012240 -0.13457618
v -0.07082453 -0.22084367 -0.13604816
v -0.06827432 -0.22308476 -0.13728095
v -0.24419486 -0.03764048 -0.50000000
v -0.24500445 -0.04140140 -0.49875985
v -0.24733755 -0.03843167 -0.49783250
v -0.24668252 -0.03471123 -0.49875985
v -0.24502653 -0.04101501 -0.13604816
v -0.24419486 -0.03764048 -0.13457618
v -0.24652060 -0.03506451 -0.13604816
v -0.24718299 -0.03839119 -0.13728095
v -0.17454424 0.20667950 -0.50000000
v -0.17820580 0.20550191 -0.49875985
v -0.17680005 0.20900891 -0.49783250
v -0.17325257 0.21030058 -0.49875985
v -0.17788196 0.20571535 -0.13604816
v -0.17454424 0.20667950 -0.13457618
v -0.17347337 0.20998410 -0.13604816
v -0.17668965 0.20889115 -0.13728095
v 0.07565264 0.26921308 -0.49875985
v 0.24944249 0.08980393 -0.49875985
v 0.24863289 0.08604301 -0.50000000
v 0.07186964 0.26852492 -0.50000000
v 0.24946457 0.08941754 -0.13604816
v 0.07526257 0.26924620 -0.13604816
v 0.07186964 0.26852492 -0.13457618
v 0.24863289 0.08604301 -0.13457618
v -0.09066320 0.39436856 -0.34792929
v 0.06936359 0.27092794 -0.13604816
v 0.07271235 0.27148729 -0.13728095
v -0.08767507 0.39520023 -0.34964047
v 0.27855834 0.28657145 -0.35301131
v 0.25177558 0.08683420 -0.49783250
v 0.24944249 0.08980393 -0.49875985
v 0.27623996 0.28966630 -0.35384666
v 0.25112055 0.08311376 -0.49875985
v 0.18264383 -0.15709938 -0.49875985
v 0.17898227 -0.15827697 -0.50000000
v 0.24863289 0.08604301 -0.50000000
v 0.18231999 -0.15731282 -0.13604816
v 0.25095863 0.08346704 -0.13604816
v 0.24863289 0.08604301 -0.13457618
v 0.17898227 -0.15827697 -0.13457618
v 0.36756924 -0.08393807 -0.35301131
v 0.18123809 -0.16060638 -0.49783250
v 0.18264383 -0.15709938 -0.49875985
v 0.36909274 -0.08038323 -0.35384666
v 0.17769060 -0.16189805 -0.49875985
v -0.06457964 -0.22270205 -0.49875985
v -0.06743161 -0.22012240 -0.50000000
v 0.17898227 -0.15827697 -0.50000000
v -0.06492555 -0.22252541 -0.13604816
v 0.17791140 -0.16158157 -0.13604816
v 0.17898227 -0.15827697 -0.13457618
v -0.06743161 -0.22012240 -0.13457618
v 0.09123360 -0.34630826 -0.35301131
v -0.06831848 -0.22323932 -0.49783250
v -0.06457964 -0.22270205 -0.49875985
v 0.09507180 -0.34584827 -0.35384666
v -0.07121461 -0.22081055 -0.49875985
v -0.24500445 -0.04140140 -0.49875985
v -0.24419486 -0.03764048 -0.50000000
v -0.06743161 -0.22012240 -0.50000000
v -0.24502653 -0.04101501 -0.13604816
v -0.07082453 -0.22084367 -0.13604816
v -0.06743161 -0.22012240 -0.13457618
v -0.24419486 -0.03764048 -0.13457618
v -0.27412031 -0.23816892 -0.35301131
v -0.24733755 -0.03843167 -0.49783250
v -0.24500445 -0.04140140 -0.49875985
v -0.27180193 -0.24126377 -0.35384666
v -0.24668252 -0.03471123 -0.49875985
v -0.17820580 0.20550191 -0.49875985
v -0.17454424 0.20667950 -0.50000000
v -0.24419486 -0.03764048 -0.50000000
v -0.17788196 0.20571535 -0.13604816
v -0.24652060 -0.03506451 -0.13604816
v -0.24419486 -0.03764048 -0.13457618
v -0.17454424 0.20667950 -0.13457618
v -0.36313121 0.13234060 -0.35301131
v -0.36313121 0.13234060 -0.35301131
v -0.17680005 0.20900891 -0.49783250
v -0.17820580 0.20550191 -0.49875985
v -0.17820580 0.20550191 -0.49875985
v -0.36465471 0.12878576 -0.35384666
v -0.17325257 0.21030058 -0.49875985
v 0.06901767 0.27110458 -0.49875985
v 0.07186964 0.26852492 -0.50000000
v -0.17454424 0.20667950 -0.50000000
v 0.06936359 0.27092794 -0.13604816
v -0.17347337 0.20998410 -0.13604816
v -0.17454424 0.20667950 -0.13457618
v 0.07186964 0.26852492 -0.13457618
v 0.06901767 0.27110458 -0.49875985
v -0.09063376 0.39425080 -0.35384666
v -0.08679556 0.39471079 -0.35301131
v 0.07275651 0.27164185 -0.49783250
v 0.25162102 0.08679372 -0.13728095
v 0.27853994 0.28757976 -0.34964047
v 0.27632460 0.28975094 -0.34792929
v 0.24946457 0.08941754 -0.13604816
v 0.18112769 -0.16048863 -0.13728095
v 0.18112769 -0.16048863 -0.13728095
v 0.36843403 -0.08341920 -0.34964047
v 0.36920682 -0.08041635 -0.34792929
v 0.36920682 -0.08041635 -0.34792929
v 0.18231999 -0.15731282 -0.13604816
v -0.06827432 -0.22308476 -0.13728095
v 0.09211311 -0.34679770 -0.34964047
v 0.09510124 -0.34596235 -0.34792929
v -0.06492555 -0.22252541 -0.13604816
v -0.24718299 -0.03839119 -0.13728095
v -0.27410191 -0.23917723 -0.34964047
v -0.27188657 -0.24134841 -0.34792929
v -0.24502653 -0.04101501 -0.13604816
v -0.17668965 0.20889115 -0.13728095
v -0.36399600 0.13182173 -0.34964047
v -0.36476879 0.12881888 -0.34792929
v -0.17788196 0.20571535 -0.13604816
v -0.36399600 0.13182173 -0.34964047
v -0.09369181 0.39369144 -0.34964047
v -0.09423644 0.39284137 -0.35301131
v -0.36313121 0.13234060 -0.35301131
v -0.27410191 -0.23917723 -0.34964047
v -0.27410191 -0.23917723 -0.34964047
v -0.36569614 0.12585651 -0.34964047
v -0.36523614 0.12496228 -0.35301131
v -0.36523614 0.12496228 -0.35301131
v -0.27412031 -0.23816892 -0.35301131
v 0.09211311 -0.34679770 -0.34964047
v -0.26978531 -0.24362999 -0.34964047
v -0.26878068 -0.24368151 -0.35301131
v 0.09123360 -0.34630826 -0.35301131
v 0.36843403 -0.08341920 -0.34964047
v 0.09812984 -0.34528891 -0.34964047
v 0.09867448 -0.34443884 -0.35301131
v 0.36756924 -0.08393807 -0.35301131
v 0.27853994 0.28757976 -0.34964047
v 0.27853994 0.28757976 -0.34964047
v 0.37013417 -0.07745398 -0.34964047
v 0.36967418 -0.07655975 -0.35301131
v 0.36967418 -0.07655975 -0.35301131
v 0.27855834 0.28657145 -0.35301131
v -0.08767507 0.39520023 -0.34964047
v 0.27422334 0.29203620 -0.34964047
v 0.27321871 0.29208404 -0.35301131
v -0.08679556 0.39471079 -0.35301131
v 0.17791140 -0.16158157 -0.13604816
v 0.09510124 -0.34596235 -0.34792929
v 0.09812984 -0.34528891 -0.34964047
v 0.18112769 -0.16048863 -0.13728095
v 0.18123809 -0.16060638 -0.49783250
v 0.09867448 -0.34443884 -0.35301131
v 0.09507180 -0.34584827 -0.35384666
v 0.17769060 -0.16189805 -0.49875985
v 0.25095863 0.08346704 -0.13604816
v 0.25095863 0.08346704 -0.13604816
v 0.36920682 -0.08041635 -0.34792929
v 0.37013417 -0.07745398 -0.34964047
v 0.37013417 -0.07745398 -0.34964047
v 0.25162102 0.08679372 -0.13728095
v 0.25177558 0.08683420 -0.49783250
v 0.36967418 -0.07655975 -0.35301131
v 0.36909274 -0.08038323 -0.35384666
v 0.25112055 0.08311376 -0.49875985
v 0.07526257 0.26924620 -0.13604816
v 0.27632460 0.28975094 -0.34792929
v 0.27422334 0.29203620 -0.34964047
v 0.07271235 0.27148729 -0.13728095
v 0.07275651 0.27164185 -0.49783250
v 0.07275651 0.27164185 -0.49783250
v 0.27321871 0.29208404 -0.35301131
v 0.27623996 0.28966630 -0.35384666
v 0.27623996 0.28966630 -0.35384666
v 0.07565264 0.26921308 -0.49875985
v -0.17347337 0.20998410 -0.13604816
v -0.09066320 0.39436856 -0.34792929
v -0.09369181 0.39369144 -0.34964047
v -0.17668965 0.20889115 -0.13728095
v -0.17680005 0.20900891 -0.49783250
v -0.17680005 0.20900891 -0.49783250
v -0.09423644 0.39284137 -0.35301131
v -0.09063376 0.39425080 -0.35384666
v -0.09063376 0.39425080 -0.35384666
v -0.17325257 0.21030058 -0.49875985
v -0.24652060 -0.03506451 -0.13604816
v -0.36476879 0.12881888 -0.34792929
v -0.36569614 0.12585651 -0.34964047
v -0.24718299 -0.03839119 -0.13728095
v -0.24733755 -0.03843167 -0.49783250
v -0.36523614 0.12496228 -0.35301131
v -0.36465471 0.12878576 -0.35384666
v -0.24668252 -0.03471123 -0.49875985
v -0.07082453 -0.22084367 -0.13604816
v -0.07082453 -0.22084367 -0.13604816
v -0.27188657 -0.24134841 -0.34792929
v -0.26978531 -0.24362999 -0.34964047
v -0.26978531 -0.24362999 -0.34964047
v -0.06827432 -0.22308476 -0.13728095
v -0.06831848 -0.22323932 -0.49783250
v -0.26878068 -0.24368151 -0.35301131
v -0.27180193 -0.24126377 -0.35384666
v -0.07121461 -0.22081055 -0.49875985
v 0.05468054 0.20822876 -0.13457618
v 0.05468054 0.20822876 -0.46222152
v 0.08583877 0.19632409 -0.46222152
v 0.08583877 0.19632409 -0.13457618
v 0.08583877 0.19632409 -0.13457618
v 0.08583877 0.19632409 -0.46222152
v 0.11445783 0.17918651 -0.46222152
v 0.11445783 0.17918651 -0.13457618
v 0.11445783 0.17918651 -0.13457618
v 0.11445783 0.17918651 -0.46222152
v 0.13966557 0.15734226 -0.46222152
v 0.13966557 0.15734226 -0.13457618
v 0.13966557 0.15734226 -0.13457618
v 0.13966557 0.15734226 -0.46222152
v 0.16069654 0.13145373 -0.46222152
v 0.16069654 0.13145373 -0.13457618
v 0.16069654 0.13145373 -0.13457618
v 0.16069654 0.13145373 -0.46222152
v 0.17691413 0.10230476 -0.46222152
v 0.17691413 0.10230476 -0.13457618
v 0.17691413 0.10230476 -0.46222152
v 0.18782154 0.07078221 -0.46222152
v 0.18782154 0.07078221 -0.13457618
v 0.17691413 0.10230476 -0.13457618
v 0.18782154 0.07078221 -0.46222152
v 0.19309124 0.03784656 -0.46222152
v 0.19309124 0.03784656 -0.13457618
v 0.18782154 0.07078221 -0.13457618
v 0.19309124 0.03784656 -0.46222152
v 0.19256133 0.00449507 -0.46222152
v 0.19256133 0.00449507 -0.13457618
v 0.19309124 0.03784656 -0.13457618
v 0.19256133 0.00449507 -0.46222152
v 0.18624651 -0.02826026 -0.46222152
v 0.18624651 -0.02826026 -0.13457618
v 0.19256133 0.00449507 -0.13457618
v 0.18624651 -0.02826026 -0.46222152
v 0.17434184 -0.05941849 -0.46222152
v 0.17434184 -0.05941849 -0.13457618
v 0.18624651 -0.02826026 -0.13457618
v 0.17434184 -0.05941849 -0.46222152
v 0.15720426 -0.08803755 -0.46222152
v 0.15720426 -0.08803755 -0.13457618
v 0.17434184 -0.05941849 -0.13457618
v 0.15720426 -0.08803755 -0.46222152
v 0.13536001 -0.11324528 -0.46222152
v 0.13536001 -0.11324528 -0.13457618
v 0.15720426 -0.08803755 -0.13457618
v 0.13536001 -0.11324528 -0.46222152
v 0.10947148 -0.13427626 -0.46222152
v 0.10947148 -0.13427626 -0.13457618
v 0.13536001 -0.11324528 -0.13457618
v 0.10947148 -0.13427626 -0.46222152
v 0.08032251 -0.15049385 -0.46222152
v 0.08032251 -0.15049385 -0.13457618
v 0.10947148 -0.13427626 -0.13457618
v 0.08032251 -0.15049385 -0.46222152
v 0.04879996 -0.16140126 -0.46222152
v 0.04879996 -0.16140126 -0.13457618
v 0.08032251 -0.15049385 -0.13457618
v 0.04879996 -0.16140126 -0.46222152
v 0.01586431 -0.16667096 -0.46222152
v 0.01586431 -0.16667096 -0.13457618
v 0.04879996 -0.16140126 -0.13457618
v 0.01586431 -0.16667096 -0.46222152
v -0.01748718 -0.16614105 -0.46222152
v -0.01748718 -0.16614105 -0.13457618
v 0.01586431 -0.16667096 -0.13457618
v -0.01748718 -0.16614105 -0.46222152
v -0.05024251 -0.15982623 -0.46222152
v -0.05024251 -0.15982623 -0.13457618
v -0.01748718 -0.16614105 -0.13457618
v -0.05024251 -0.15982623 -0.46222152
v -0.08140074 -0.14792156 -0.46222152
v -0.08140074 -0.14792156 -0.13457618
v -0.05024251 -0.15982623 -0.13457618
v -0.08140074 -0.14792156 -0.46222152
v -0.11001980 -0.13078398 -0.46222152
v -0.11001980 -0.13078398 -0.13457618
v -0.08140074 -0.14792156 -0.13457618
v -0.11001980 -0.13078398 -0.46222152
v -0.13522753 -0.10893973 -0.46222152
v -0.13522753 -0.10893973 -0.13457618
v -0.11001980 -0.13078398 -0.13457618
v -0.13522753 -0.10893973 -0.46222152
v -0.15625851 -0.08305120 -0.46222152
v -0.15625851 -0.08305120 -0.13457618
v -0.13522753 -0.10893973 -0.13457618
v -0.15625851 -0.08305120 -0.46222152
v -0.17247610 -0.05390223 -0.46222152
v -0.17247610 -0.05390223 -0.13457618
v -0.15625851 -0.08305120 -0.13457618
v -0.17247610 -0.05390223 -0.13457618
v -0.17247610 -0.05390223 -0.46222152
v -0.18338350 -0.02237968 -0.46222152
v -0.18338350 -0.02237968 -0.13457618
v -0.18338350 -0.02237968 -0.13457618
v -0.18338350 -0.02237968 -0.46222152
v -0.18865321 0.01055597 -0.46222152
v -0.18865321 0.01055597 -0.13457618
v -0.18865321 0.01055597 -0.13457618
v -0.18865321 0.01055597 -0.46222152
v -0.18812329 0.04390746 -0.46222152
v -0.18812329 0.04390746 -0.13457618
v -0.18812329 0.04390746 -0.13457618
v -0.18812329 0.04390746 -0.46222152
v -0.18180848 0.07666279 -0.46222152
v -0.18180848 0.07666279 -0.13457618
v -0.18180848 0.07666279 -0.13457618
v -0.18180848 0.07666279 -0.46222152
v -0.16990381 0.10782102 -0.46222152
v -0.16990381 0.10782102 -0.13457618
v -0.16990381 0.10782102 -0.13457618
v -0.16990381 0.10782102 -0.46222152
v -0.15276623 0.13644008 -0.46222152
v -0.15276623 0.13644008 -0.13457618
v -0.15276623 0.13644008 -0.13457618
v -0.15276623 0.13644008 -0.46222152
v -0.13092198 0.16164781 -0.46222152
v -0.13092198 0.16164781 -0.13457618
v -0.13092198 0.16164781 -0.13457618
v -0.13092198 0.16164781 -0.46222152
v -0.10503345 0.18267879 -0.46222152
v -0.10503345 0.18267879 -0.13457618
v -0.10503345 0.18267879 -0.13457618
v -0.10503345 0.18267879 -0.46222152
v -0.07588448 0.19889638 -0.46222152
v -0.07588448 0.19889638 -0.13457618
v -0.07588448 0.19889638 -0.13457618
v -0.07588448 0.19889638 -0.46222152
v -0.04436193 0.20980378 -0.46222152
v -0.04436193 0.20980378 -0.13457618
v -0.04436193 0.20980378 -0.13457618
v -0.04436193 0.20980378 -0.46222152
v -0.01142628 0.21507349 -0.46222152
v -0.01142628 0.21507349 -0.13457618
v -0.01142628 0.21507349 -0.13457618
v -0.01142628 0.21507349 -0.46222152
v 0.02192521 0.21454357 -0.46222152
v 0.02192521 0.21454357 -0.13457618
v 0.02192521 0.21454357 -0.13457618
v 0.02192521 0.21454357 -0.46222152
v 0.05468054 0.20822876 -0.46222152
v 0.05468054 0.20822876 -0.13457618
v -0.05024251 -0.15982623 -0.13457618
v -0.06743161 -0.22012240 -0.13457618
v 0.17898227 -0.15827697 -0.13457618
v 0.24863289 0.08604301 -0.13457618
v 0.07186964 0.26852492 -0.13457618
v 0.05468054 0.20822876 -0.13457618
v 0.08583877 0.19632409 -0.13457618
v 0.11445783 0.17918651 -0.13457618
v 0.13966557 0.15734226 -0.13457618
v 0.16069654 0.13145373 -0.13457618
v 0.17691413 0.10230476 -0.13457618
v 0.18782154 0.07078221 -0.13457618
v 0.19309124 0.03784656 -0.13457618
v 0.19256133 0.00449507 -0.13457618
v 0.18624651 -0.02826026 -0.13457618
v 0.17434184 -0.05941849 -0.13457618
v 0.15720426 -0.08803755 -0.13457618
v 0.13536001 -0.11324528 -0.13457618
v 0.10947148 -0.13427626 -0.13457618
v 0.08032251 -0.15049385 -0.13457618
v 0.04879996 -0.16140126 -0.13457618
v 0.01586431 -0.16667096 -0.13457618
v -0.01748718 -0.16614105 -0.13457618
v 0.07186964 0.26852492 -0.13457618
v -0.17454424 0.20667950 -0.13457618
v -0.24419486 -0.03764048 -0.13457618
v -0.06743161 -0.22012240 -0.13457618
v -0.05024251 -0.15982623 -0.13457618
v -0.08140074 -0.14792156 -0.13457618
v -0.11001980 -0.13078398 -0.13457618
v -0.13522753 -0.10893973 -0.13457618
v -0.15625851 -0.08305120 -0.13457618
v -0.17247610 -0.05390223 -0.13457618
v -0.18338350 -0.02237968 -0.13457618
v -0.18865321 0.01055597 -0.13457618
v -0.18812329 0.04390746 -0.13457618
v -0.18180848 0.07666279 -0.13457618
v -0.16990381 0.10782102 -0.13457618
v -0.15276623 0.13644008 -0.13457618
v -0.13092198 0.16164781 -0.13457618
v -0.10503345 0.18267879 -0.13457618
v -0.07588448 0.19889638 -0.13457618
v -0.04436193 0.20980378 -0.13457618
v -0.01142628 0.21507349 -0.13457618
v 0.02192521 0.21454357 -0.13457618
v 0.05468054 0.20822876 -0.13457618
v -0.17454424 0.20667950 -0.50000000
v 0.07186964 0.26852492 -0.50000000
v 0.24863289 0.08604301 -0.50000000
v 0.17898227 -0.15827697 -0.50000000
v -0.06743161 -0.22012240 -0.50000000
v -0.24419486 -0.03764048 -0.50000000
v -0.09369181 0.39369144 -0.34964047
v -0.09066320 0.39436856 -0.34792929
v -0.08767507 0.39520023 -0.34964047
v -0.08679556 0.39471079 -0.35301131
v -0.09063376 0.39425080 -0.35384666
v -0.09423644 0.39284137 -0.35301131
v 0.27855834 0.28657145 -0.35301131
v 0.27623996 0.28966630 -0.35384666
v 0.27321871 0.29208404 -0.35301131
v 0.27422334 0.29203620 -0.34964047
v 0.27632460 0.28975094 -0.34792929
v 0.27853994 0.28757976 -0.34964047
v 0.36756924 -0.08393807 -0.35301131
v 0.36909274 -0.08038323 -0.35384666
v 0.36967418 -0.07655975 -0.35301131
v 0.37013417 -0.07745398 -0.34964047
v 0.36920682 -0.08041635 -0.34792929
v 0.36843403 -0.08341920 -0.34964047
v 0.09123360 -0.34630826 -0.35301131
v 0.09507180 -0.34584827 -0.35384666
v 0.09867448 -0.34443884 -0.35301131
v 0.09812984 -0.34528891 -0.34964047
v 0.09510124 -0.34596235 -0.34792929
v 0.09211311 -0.34679770 -0.34964047
v -0.27412031 -0.23816892 -0.35301131
v -0.27180193 -0.24126377 -0.35384666
v -0.26878068 -0.24368151 -0.35301131
v -0.26978531 -0.24362999 -0.34964047
v -0.27188657 -0.24134841 -0.34792929
v -0.27410191 -0.23917723 -0.34964047
v -0.36313121 0.13234060 -0.35301131
v -0.36465471 0.12878576 -0.35384666
v -0.36523614 0.12496228 -0.35301131
v -0.36569614 0.12585651 -0.34964047
v -0.36476879 0.12881888 -0.34792929
v -0.36399600 0.13182173 -0.34964047
v -0.15276623 0.13644008 -0.46222152
v -0.16990381 0.10782102 -0.46222152
v -0.18180848 0.07666279 -0.46222152
v -0.18812329 0.04390746 -0.46222152
v -0.18865321 0.01055597 -0.46222152
v -0.18338350 -0.02237968 -0.46222152
v -0.17247610 -0.05390223 -0.46222152
v -0.15625851 -0.08305120 -0.46222152
v -0.13522753 -0.10893973 -0.46222152
v -0.11001980 -0.13078398 -0.46222152
v -0.08140074 -0.14792156 -0.46222152
v -0.05024251 -0.15982623 -0.46222152
v -0.01748718 -0.16614105 -0.46222152
v 0.01586431 -0.16667096 -0.46222152
v 0.04879996 -0.16140126 -0.46222152
v 0.08032251 -0.15049385 -0.46222152
v 0.10947148 -0.13427626 -0.46222152
v 0.13536001 -0.11324528 -0.46222152
v 0.15720426 -0.08803755 -0.46222152
v 0.17434184 -0.05941849 -0.46222152
v 0.18624651 -0.02826026 -0.46222152
v 0.19256133 0.00449507 -0.46222152
v 0.19309124 0.03784656 -0.46222152
v 0.18782154 0.07078221 -0.46222152
v 0.17691413 0.10230476 -0.46222152
v 0.16069654 0.13145373 -0.46222152
v 0.13966557 0.15734226 -0.46222152
v 0.11445783 0.17918651 -0.46222152
v 0.08583877 0.19632409 -0.46222152
v 0.05468054 0.20822876 -0.46222152
v 0.02192521 0.21454357 -0.46222152
v -0.01142628 0.21507349 -0.46222152
v -0.04436193 0.20980378 -0.46222152
v -0.07588448 0.19889638 -0.46222152
v -0.10503345 0.18267879 -0.46222152
v -0.13092198 0.16164781 -0.46222152
vn 0.25850032 0.90680114 0.33300042
vn 0.25850032 0.90680114 0.33300042
vn 0.25850032 0.90680114 0.33300042
vn -0.16440204 0.65490814 -0.73760917
vn -0.16440204 0.65490814 -0.73760917
vn -0.16440204 0.65490814 -0.73760917
vn -0.25850032 -0.90680114 0.33300042
vn -0.25850032 -0.90680114 0.33300042
vn -0.25850032 -0.90680114 0.33300042
vn -0.86227299 -0.21639322 -0.45788565
vn -0.86227299 -0.21639322 -0.45788565
vn -0.86227299 -0.21639322 -0.45788565
vn 0.65609183 -0.67729156 0.33289585
vn 0.65609183 -0.67729156 0.33289585
vn 0.65609183 -0.67729156 0.33289585
vn -0.24369906 -0.85489671 -0.45799824
vn -0.24369906 -0.85489671 -0.45799824
vn -0.24369906 -0.85489671 -0.45799824
vn 0.91460648 0.22950163 0.33290236
vn 0.91460648 0.22950163 0.33290236
vn 0.91460648 0.22950163 0.33290236
vn 0.61859362 -0.63849342 -0.45789528
vn 0.61859362 -0.63849342 -0.45789528
vn 0.61859362 -0.63849342 -0.45789528
vn -0.19481275 0.77635082 0.59943924
vn -0.19481275 0.77635082 0.59943924
vn -0.19481275 0.77635082 0.59943924
vn 0.86227299 0.21639322 -0.45788565
vn 0.86227299 0.21639322 -0.45788565
vn 0.86227299 0.21639322 -0.45788565
vn -0.91460648 -0.22950163 0.33290236
vn -0.91460648 -0.22950163 0.33290236
vn -0.91460648 -0.22950163 0.33290236
vn -0.61859362 0.63849342 -0.45789528
vn -0.61859362 0.63849342 -0.45789528
vn -0.61859362 0.63849342 -0.45789528
vn -0.57492070 -0.55692006 0.59942159
vn -0.57492070 -0.55692006 0.59942159
vn -0.57492070 -0.55692006 0.59942159
vn -0.64938827 0.18509666 -0.73758668
vn -0.64938827 0.18509666 -0.73758668
vn -0.64938827 0.18509666 -0.73758668
vn -0.48500223 -0.46980216 -0.73760339
vn -0.48500223 -0.46980216 -0.73760339
vn -0.48500223 -0.46980216 -0.73760339
vn 0.19481275 -0.77635082 0.59943924
vn 0.19481275 -0.77635082 0.59943924
vn 0.19481275 -0.77635082 0.59943924
vn 0.16440204 -0.65490814 -0.73760917
vn 0.16440204 -0.65490814 -0.73760917
vn 0.16440204 -0.65490814 -0.73760917
vn 0.76979663 -0.21939904 0.59939737
vn 0.76979663 -0.21939904 0.59939737
vn 0.76979663 -0.21939904 0.59939737
vn 0.64938827 -0.18509666 -0.73758668
vn 0.64938827 -0.18509666 -0.73758668
vn 0.64938827 -0.18509666 -0.73758668
vn 0.57492070 0.55692006 0.59942159
vn 0.57492070 0.55692006 0.59942159
vn 0.57492070 0.55692006 0.59942159
vn 0.24369906 0.85489671 -0.45799824
vn 0.24369906 0.85489671 -0.45799824
vn 0.24369906 0.85489671 -0.45799824
vn -0.65609183 0.67729156 0.33289585
vn -0.65609183 0.67729156 0.33289585
vn -0.65609183 0.67729156 0.33289585
vn -0.76979663 0.21939904 0.59939737
vn -0.76979663 0.21939904 0.59939737
vn -0.76979663 0.21939904 0.59939737
vn 0.48500223 0.46980216 -0.73760339
vn 0.48500223 0.46980216 -0.73760339
vn 0.48500223 0.46980216 -0.73760339
vn 0.15240274 0.53480962 -0.83111496
vn 0.15239823 0.53469377 -0.83119032
vn 0.15239823 0.53469377 -0.83119032
vn 0.15239823 0.53469377 -0.83119032
vn 0.18090025 0.63480086 0.75120102
vn 0.18089814 0.63469347 0.75129227
vn 0.18090025 0.63480086 0.75120102
vn 0.18089814 0.63469347 0.75129227
vn 0.53928813 0.13529702 -0.83118171
vn 0.53928813 0.13529702 -0.83118171
vn 0.53928813 0.13529702 -0.83118171
vn 0.53928813 0.13529702 -0.83118171
vn 0.64020577 0.16070145 0.75120677
vn 0.64010894 0.16060224 0.75131050
vn 0.64020577 0.16070145 0.75120677
vn 0.64021606 0.16060403 0.75121884
vn 0.38687961 -0.39937895 -0.83115620
vn 0.38687961 -0.39937895 -0.83115620
vn 0.38687961 -0.39937895 -0.83115620
vn 0.38687961 -0.39937895 -0.83115620
vn 0.45911011 -0.47391043 0.75141654
vn 0.45929340 -0.47409319 0.75118921
vn 0.45911011 -0.47391043 0.75141654
vn 0.45920176 -0.47400182 0.75130288
vn -0.15239823 -0.53469377 -0.83119032
vn -0.15239823 -0.53469377 -0.83119032
vn -0.15239823 -0.53469377 -0.83119032
vn -0.15239823 -0.53469377 -0.83119032
vn -0.18090751 -0.63452633 0.75143118
vn -0.18089814 -0.63469347 0.75129227
vn -0.18090751 -0.63452633 0.75143118
vn -0.18089814 -0.63469347 0.75129227
vn -0.53928813 -0.13529702 -0.83118171
vn -0.53928813 -0.13529702 -0.83118171
vn -0.53928813 -0.13529702 -0.83118171
vn -0.53928813 -0.13529702 -0.83118171
vn -0.64031287 -0.16070323 0.75111510
vn -0.64010894 -0.16060224 0.75131050
vn -0.64020577 -0.16070145 0.75120677
vn -0.64021606 -0.16060403 0.75121884
vn -0.38687961 0.39937895 -0.83115620
vn -0.38689506 0.39929490 -0.83118939
vn -0.38687961 0.39937895 -0.83115620
vn -0.38687961 0.39937895 -0.83115620
vn -0.45911011 0.47391043 0.75141654
vn -0.45920176 0.47400182 0.75130288
vn -0.45911011 0.47391043 0.75141654
vn -0.45920176 0.47400182 0.75130288
vn 0.26019760 0.25199768 -0.93209140
vn 0.26019760 0.25199768 -0.93209140
vn 0.26019760 0.25199768 -0.93209140
vn 0.26019760 0.25199768 -0.93209140
vn 0.32139351 0.31139371 0.89428193
vn 0.32139351 0.31139371 0.89428193
vn 0.32139351 0.31139371 0.89428193
vn 0.32139351 0.31139371 0.89428193
vn 0.03309930 0.87428138 0.48428969
vn 0.03309930 0.87428138 0.48428969
vn 0.03309930 0.87428138 0.48428969
vn 0.03309930 0.87428138 0.48428969
vn 0.69900523 0.35600266 -0.62020464
vn 0.69900523 0.35600266 -0.62020464
vn 0.69900523 0.35600266 -0.62020464
vn 0.69900523 0.35600266 -0.62020464
vn 0.34839069 -0.09929735 -0.93207509
vn 0.34839069 -0.09929735 -0.93207509
vn 0.34839069 -0.09929735 -0.93207509
vn 0.34839069 -0.09929735 -0.93207509
vn 0.43042301 -0.12270656 0.89424780
vn 0.43042301 -0.12270656 0.89424780
vn 0.43042301 -0.12270656 0.89424780
vn 0.43042301 -0.12270656 0.89424780
vn 0.65787838 -0.42728596 -0.62017962
vn 0.65787838 -0.42728596 -0.62017962
vn 0.65787838 -0.42728596 -0.62017962
vn 0.65787838 -0.42728596 -0.62017962
vn 0.08819994 -0.35129976 -0.93209938
vn 0.08819994 -0.35129976 -0.93209938
vn 0.08819994 -0.35129976 -0.93209938
vn 0.08819994 -0.35129976 -0.93209938
vn 0.10889594 -0.43408383 0.89426668
vn 0.10889594 -0.43408383 0.89426668
vn 0.10889594 -0.43408383 0.89426668
vn 0.10889594 -0.43408383 0.89426668
vn -0.04119941 -0.78328887 -0.62029119
vn -0.04119941 -0.78328887 -0.62029119
vn -0.04119941 -0.78328887 -0.62029119
vn -0.04119941 -0.78328887 -0.62029119
vn -0.26019760 -0.25199768 -0.93209140
vn -0.26019760 -0.25199768 -0.93209140
vn -0.26019760 -0.25199768 -0.93209140
vn -0.26019760 -0.25199768 -0.93209140
vn -0.32139351 -0.31139371 0.89428193
vn -0.32139351 -0.31139371 0.89428193
vn -0.32139351 -0.31139371 0.89428193
vn -0.32139351 -0.31139371 0.89428193
vn -0.69900523 -0.35600266 -0.62020464
vn -0.69900523 -0.35600266 -0.62020464
vn -0.69900523 -0.35600266 -0.62020464
vn -0.69900523 -0.35600266 -0.62020464
vn -0.34839069 0.09929735 -0.93207509
vn -0.34839069 0.09929735 -0.93207509
vn -0.34839069 0.09929735 -0.93207509
vn -0.34839069 0.09929735 -0.93207509
vn -0.43042301 0.12270656 0.89424780
vn -0.43042301 0.12270656 0.89424780
vn -0.43042301 0.12270656 0.89424780
vn -0.43042301 0.12270656 0.89424780
vn -0.65782165 0.42731407 -0.62022041
vn -0.65787838 0.42728596 -0.62017962
vn -0.65787838 0.42728596 -0.62017962
vn -0.65782165 0.42731407 -0.62022041
vn -0.65787838 0.42728596 -0.62017962
vn -0.65782165 0.42731407 -0.62022041
vn -0.08819994 0.35129976 -0.93209938
vn -0.08819994 0.35129976 -0.93209938
vn -0.08819994 0.35129976 -0.93209938
vn -0.08819994 0.35129976 -0.93209938
vn -0.10889594 0.43408383 0.89426668
vn -0.10889594 0.43408383 0.89426668
vn -0.10889594 0.43408383 0.89426668
vn -0.10889594 0.43408383 0.89426668
vn 0.04119941 0.78328887 -0.62029119
vn 0.04119941 0.78328887 -0.62029119
vn 0.04119941 0.78328887 -0.62029119
vn 0.04119941 0.78328887 -0.62029119
vn 0.77368823 0.40849378 0.48429263
vn 0.77368823 0.40849378 0.48429263
vn 0.77368823 0.40849378 0.48429263
vn 0.77368823 0.40849378 0.48429263
vn 0.74063420 -0.46582151 0.48422236
vn 0.74067935 -0.46578701 0.48418650
vn 0.74063420 -0.46582151 0.48422236
vn 0.74063420 -0.46582151 0.48422236
vn 0.74067935 -0.46578701 0.48418650
vn 0.74067935 -0.46578701 0.48418650
vn -0.03309930 -0.87428138 0.48428969
vn -0.03309930 -0.87428138 0.48428969
vn -0.03309930 -0.87428138 0.48428969
vn -0.03309930 -0.87428138 0.48428969
vn -0.77368823 -0.40849378 0.48429263
vn -0.77368823 -0.40849378 0.48429263
vn -0.77368823 -0.40849378 0.48429263
vn -0.77368823 -0.40849378 0.48429263
vn -0.74067935 0.46578701 0.48418650
vn -0.74067935 0.46578701 0.48418650
vn -0.74067935 0.46578701 0.48418650
vn -0.74067935 0.46578701 0.48418650
vn -0.69418154 0.71658094 -0.06799819
vn -0.69418154 0.71658094 -0.06799819
vn -0.69418154 0.71658094 -0.06799819
vn -0.69418154 0.71658094 -0.06799819
vn -0.96768416 -0.24279603 -0.06809889
vn -0.96769074 -0.24279768 -0.06799935
vn -0.96768416 -0.24279603 -0.06809889
vn -0.96768416 -0.24279603 -0.06809889
vn -0.96769074 -0.24279768 -0.06799935
vn -0.96769074 -0.24279768 -0.06799935
vn -0.27348905 -0.95946157 -0.06809727
vn -0.27348905 -0.95946157 -0.06809727
vn -0.27348905 -0.95946157 -0.06809727
vn -0.27348905 -0.95946157 -0.06809727
vn 0.69418154 -0.71658094 -0.06799819
vn 0.69418154 -0.71658094 -0.06799819
vn 0.69418154 -0.71658094 -0.06799819
vn 0.69418154 -0.71658094 -0.06799819
vn 0.96768416 0.24279603 -0.06809889
vn 0.96769074 0.24279768 -0.06799935
vn 0.96769074 0.24279768 -0.06799935
vn 0.96769074 0.24279768 -0.06799935
vn 0.96768416 0.24279603 -0.06809889
vn 0.96768416 0.24279603 -0.06809889
vn 0.27348905 0.95946157 -0.06809727
vn 0.27348905 0.95946157 -0.06809727
vn 0.27348905 0.95946157 -0.06809727
vn 0.27348905 0.95946157 -0.06809727
vn 0.44201426 -0.75502435 0.48431562
vn 0.44201426 -0.75502435 0.48431562
vn 0.44201426 -0.75502435 0.48431562
vn 0.44201426 -0.75502435 0.48431562
vn 0.40622285 -0.67103775 -0.62023490
vn 0.40622285 -0.67103775 -0.62023490
vn 0.40622285 -0.67103775 -0.62023490
vn 0.40622285 -0.67103775 -0.62023490
vn 0.87493207 0.00520019 0.48421775
vn 0.87488970 0.00519994 0.48429430
vn 0.87493207 0.00520019 0.48421775
vn 0.87493207 0.00520019 0.48421775
vn 0.87488970 0.00519994 0.48429430
vn 0.87488970 0.00519994 0.48429430
vn 0.78428550 0.01619970 -0.62018854
vn 0.78428550 0.01619970 -0.62018854
vn 0.78428550 0.01619970 -0.62018854
vn 0.78428550 0.01619970 -0.62018854
vn 0.43289892 0.76029810 0.48429879
vn 0.43289892 0.76029810 0.48429879
vn 0.43289892 0.76029810 0.48429879
vn 0.43289892 0.76029810 0.48429879
vn 0.37810462 0.68720840 -0.62030759
vn 0.37799294 0.68728715 -0.62028841
vn 0.37810462 0.68720840 -0.62030759
vn 0.37810462 0.68720840 -0.62030759
vn 0.37799294 0.68728715 -0.62028841
vn 0.37799294 0.68728715 -0.62028841
vn -0.44201426 0.75502435 0.48431562
vn -0.44201426 0.75502435 0.48431562
vn -0.44201426 0.75502435 0.48431562
vn -0.44201426 0.75502435 0.48431562
vn -0.40619559 0.67109272 -0.62019327
vn -0.40622285 0.67103775 -0.62023490
vn -0.40619559 0.67109272 -0.62019327
vn -0.40619559 0.67109272 -0.62019327
vn -0.40622285 0.67103775 -0.62023490
vn -0.40622285 0.67103775 -0.62023490
vn -0.87493207 -0.00520019 0.48421775
vn -0.87493207 -0.00520019 0.48421775
vn -0.87493207 -0.00520019 0.48421775
vn -0.87493207 -0.00520019 0.48421775
vn -0.78428550 -0.01619970 -0.62018854
vn -0.78428550 -0.01619970 -0.62018854
vn -0.78428550 -0.01619970 -0.62018854
vn -0.78428550 -0.01619970 -0.62018854
vn -0.43289892 -0.76029810 0.48429879
vn -0.43287795 -0.76026128 0.48437533
vn -0.43287795 -0.76026128 0.48437533
vn -0.43287795 -0.76026128 0.48437533
vn -0.43289892 -0.76029810 0.48429879
vn -0.43289892 -0.76029810 0.48429879
vn -0.37799294 -0.68728715 -0.62028841
vn -0.37799294 -0.68728715 -0.62028841
vn -0.37799294 -0.68728715 -0.62028841
vn -0.37799294 -0.68728715 -0.62028841
vn -0.35691420 -0.93413717 0.00000000
vn -0.35691420 -0.93413717 0.00000000
vn -0.35691420 -0.93413717 0.00000000
vn -0.35691420 -0.93413717 0.00000000
vn -0.51368672 -0.85797783 0.00000000
vn -0.51368672 -0.85797783 0.00000000
vn -0.51368672 -0.85797783 0.00000000
vn -0.51368672 -0.85797783 0.00000000
vn -0.65490770 -0.75570888 0.00000000
vn -0.65490770 -0.75570888 0.00000000
vn -0.65490770 -0.75570888 0.00000000
vn -0.65490770 -0.75570888 0.00000000
vn -0.77619352 -0.63049474 0.00000000
vn -0.77619352 -0.63049474 0.00000000
vn -0.77619352 -0.63049474 0.00000000
vn -0.77619352 -0.63049474 0.00000000
vn -0.87385996 -0.48617772 0.00000000
vn -0.87385996 -0.48617772 0.00000000
vn -0.87385996 -0.48617772 0.00000000
vn -0.87385996 -0.48617772 0.00000000
vn -0.94502174 -0.32700752 0.00000000
vn -0.94502174 -0.32700752 0.00000000
vn -0.94502174 -0.32700752 0.00000000
vn -0.94502174 -0.32700752 0.00000000
vn -0.98743814 -0.15800610 0.00000000
vn -0.98743814 -0.15800610 0.00000000
vn -0.98743814 -0.15800610 0.00000000
vn -0.98743814 -0.15800610 0.00000000
vn -0.99987359 0.01589958 0.00000000
vn -0.99987359 0.01589958 0.00000000
vn -0.99987359 0.01589958 0.00000000
vn -0.99987359 0.01589958 0.00000000
vn -0.98191861 0.18930359 0.00000000
vn -0.98191861 0.18930359 0.00000000
vn -0.98191861 0.18930359 0.00000000
vn -0.98191861 0.18930359 0.00000000
vn -0.93413717 0.35691420 0.00000000
vn -0.93413717 0.35691420 0.00000000
vn -0.93413717 0.35691420 0.00000000
vn -0.93413717 0.35691420 0.00000000
vn -0.85797783 0.51368672 0.00000000
vn -0.85797783 0.51368672 0.00000000
vn -0.85797783 0.51368672 0.00000000
vn -0.85797783 0.51368672 0.00000000
vn -0.75570888 0.65490770 0.00000000
vn -0.75570888 0.65490770 0.00000000
vn -0.75570888 0.65490770 0.00000000
vn -0.75570888 0.65490770 0.00000000
vn -0.63049474 0.77619352 0.00000000
vn -0.63049474 0.77619352 0.00000000
vn -0.63049474 0.77619352 0.00000000
vn -0.63049474 0.77619352 0.00000000
vn -0.48617772 0.87385996 0.00000000
vn -0.48617772 0.87385996 0.00000000
vn -0.48617772 0.87385996 0.00000000
vn -0.48617772 0.87385996 0.00000000
vn -0.32700752 0.94502174 0.00000000
vn -0.32700752 0.94502174 0.00000000
vn -0.32700752 0.94502174 0.00000000
vn -0.32700752 0.94502174 0.00000000
vn -0.15800610 0.98743814 0.00000000
vn -0.15800610 0.98743814 0.00000000
vn -0.15800610 0.98743814 0.00000000
vn -0.15800610 0.98743814 0.00000000
vn 0.01589958 0.99987359 0.00000000
vn 0.01589958 0.99987359 0.00000000
vn 0.01589958 0.99987359 0.00000000
vn 0.01589958 0.99987359 0.00000000
vn 0.18930359 0.98191861 0.00000000
vn 0.18930359 0.98191861 0.00000000
vn 0.18930359 0.98191861 0.00000000
vn 0.18930359 0.98191861 0.00000000
vn 0.35691420 0.93413717 0.00000000
vn 0.35691420 0.93413717 0.00000000
vn 0.35691420 0.93413717 0.00000000
vn 0.35691420 0.93413717 0.00000000
vn 0.51368672 0.85797783 0.00000000
vn 0.51368672 0.85797783 0.00000000
vn 0.51368672 0.85797783 0.00000000
vn 0.51368672 0.85797783 0.00000000
vn 0.65490770 0.75570888 0.00000000
vn 0.65490770 0.75570888 0.00000000
vn 0.65490770 0.75570888 0.00000000
vn 0.65490770 0.75570888 0.00000000
vn 0.77619352 0.63049474 0.00000000
vn 0.77619352 0.63049474 0.00000000
vn 0.77619352 0.63049474 0.00000000
vn 0.77619352 0.63049474 0.00000000
vn 0.87385996 0.48617772 0.00000000
vn 0.87385996 0.48617772 0.00000000
vn 0.87385996 0.48617772 0.00000000
vn 0.87385996 0.48617772 0.00000000
vn 0.94502174 0.32700752 0.00000000
vn 0.94502174 0.32700752 0.00000000
vn 0.94502174 0.32700752 0.00000000
vn 0.94502174 0.32700752 0.00000000
vn 0.98743814 0.15800610 0.00000000
vn 0.98743814 0.15800610 0.00000000
vn 0.98743814 0.15800610 0.00000000
vn 0.98743814 0.15800610 0.00000000
vn 0.99987359 -0.01589958 0.00000000
vn 0.99987359 -0.01589958 0.00000000
vn 0.99987359 -0.01589958 0.00000000
vn 0.99987359 -0.01589958 0.00000000
vn 0.98191861 -0.18930359 0.00000000
vn 0.98191861 -0.18930359 0.00000000
vn 0.98191861 -0.18930359 0.00000000
vn 0.98191861 -0.18930359 0.00000000
vn 0.93413717 -0.35691420 0.00000000
vn 0.93413717 -0.35691420 0.00000000
vn 0.93413717 -0.35691420 0.00000000
vn 0.93413717 -0.35691420 0.00000000
vn 0.85797783 -0.51368672 0.00000000
vn 0.85797783 -0.51368672 0.00000000
vn 0.85797783 -0.51368672 0.00000000
vn 0.85797783 -0.51368672 0.00000000
vn 0.75570888 -0.65490770 0.00000000
vn 0.75570888 -0.65490770 0.00000000
vn 0.75570888 -0.65490770 0.00000000
vn 0.75570888 -0.65490770 0.00000000
vn 0.63049474 -0.77619352 0.00000000
vn 0.63049474 -0.77619352 0.00000000
vn 0.63049474 -0.77619352 0.00000000
vn 0.63049474 -0.77619352 0.00000000
vn 0.48617772 -0.87385996 0.00000000
vn 0.48617772 -0.87385996 0.00000000
vn 0.48617772 -0.87385996 0.00000000
vn 0.48617772 -0.87385996 0.00000000
vn 0.32700752 -0.94502174 0.00000000
vn 0.32700752 -0.94502174 0.00000000
vn 0.32700752 -0.94502174 0.00000000
vn 0.32700752 -0.94502174 0.00000000
vn 0.15800610 -0.98743814 0.00000000
vn 0.15800610 -0.98743814 0.00000000
vn 0.15800610 -0.98743814 0.00000000
vn 0.15800610 -0.98743814 0.00000000
vn -0.01589958 -0.99987359 0.00000000
vn -0.01589958 -0.99987359 0.00000000
vn -0.01589958 -0.99987359 0.00000000
vn -0.01589958 -0.99987359 0.00000000
vn -0.18930359 -0.98191861 0.00000000
vn -0.18930359 -0.98191861 0.00000000
vn -0.18930359 -0.98191861 0.00000000
vn -0.18930359 -0.98191861 0.00000000
vn 0.00000000 0.00000000 1.00000000
vn 0.00000000 0.00000000 1.00000000
vn 0.00000000 0.00000000 1.00000000
vn 0.00000000 0.00000000 1.00000000
vn 0.00000000 0.00000000 1.00000000
vn 0.00000000 0.00000000 1.00000000
vn 0.00000000 0.00000000 1.00000000
vn 0.00000000 0.00000000 1.00000000
vn 0.00000000 0.00000000 1.00000000
vn 0.00000000 0.00000000 1.00000000
vn 0.00000000 0.00000000 1.00000000
vn 0.00000000 0.00000000 1.00000000
vn 0.00000000 0.00000000 1.00000000
vn 0.00000000 0.00000000 1.00000000
vn 0.00000000 0.00000000 1.00000000
vn 0.00000000 0.00000000 1.00000000
vn 0.00000000 0.00000000 1.00000000
vn 0.00000000 0.00000000 1.00000000
vn 0.00000000 0.00000000 1.00000000
vn 0.00000000 0.00000000 1.00000000
vn 0.00000000 0.00000000 1.00000000
vn 0.00000000 0.00000000 1.00000000
vn 0.00000000 0.00000000 1.00000000
vn 0.00000000 0.00000000 1.00000000
vn 0.00000000 0.00000000 1.00000000
vn 0.00000000 0.00000000 1.00000000
vn 0.00000000 0.00000000 1.00000000
vn 0.00000000 0.00000000 1.00000000
vn 0.00000000 0.00000000 1.00000000
vn 0.00000000 0.00000000 1.00000000
vn 0.00000000 0.00000000 1.00000000
vn 0.00000000 0.00000000 1.00000000
vn 0.00000000 0.00000000 1.00000000
vn 0.00000000 0.00000000 1.00000000
vn 0.00000000 0.00000000 1.00000000
vn 0.00000000 0.00000000 1.00000000
vn 0.00000000 0.00000000 1.00000000
vn 0.00000000 0.00000000 1.00000000
vn 0.00000000 0.00000000 1.00000000
vn 0.00000000 0.00000000 1.00000000
vn 0.00000000 0.00000000 1.00000000
vn 0.00000000 0.00000000 1.00000000
vn 0.00000000 0.00000000 1.00000000
vn 0.00000000 0.00000000 1.00000000
vn 0.00000000 0.00000000 1.00000000
vn 0.00000000 0.00000000 1.00000000
vn 0.00000000 0.00000000 -1.00000000
vn 0.00000000 0.00000000 -1.00000000
vn 0.00000000 0.00000000 -1.00000000
vn 0.00000000 0.00000000 -1.00000000
vn 0.00000000 0.00000000 -1.00000000
vn 0.00000000 0.00000000 -1.00000000
vn -0.24259280 0.96657133 -0.08299754
vn -0.24259280 0.96657133 -0.08299754
vn -0.24259280 0.96657133 -0.08299754
vn -0.24259280 0.96657133 -0.08299754
vn -0.24259280 0.96657133 -0.08299754
vn -0.24259280 0.96657133 -0.08299754
vn 0.71582737 0.69332651 -0.08300317
vn 0.71577774 0.69337844 -0.08299742
vn 0.71582737 0.69332651 -0.08300317
vn 0.71582737 0.69332651 -0.08300317
vn 0.71582737 0.69332651 -0.08300317
vn 0.71582737 0.69332651 -0.08300317
vn 0.95838025 -0.27319437 -0.08289829
vn 0.95838025 -0.27319437 -0.08289829
vn 0.95838025 -0.27319437 -0.08289829
vn 0.95838025 -0.27319437 -0.08289829
vn 0.95838025 -0.27319437 -0.08289829
vn 0.95837230 -0.27319210 -0.08299760
vn 0.24259280 -0.96657133 -0.08299754
vn 0.24259482 -0.96657935 -0.08289823
vn 0.24259280 -0.96657133 -0.08299754
vn 0.24259482 -0.96657935 -0.08289823
vn 0.24259280 -0.96657133 -0.08299754
vn 0.24259280 -0.96657133 -0.08299754
vn -0.71582737 -0.69332651 -0.08300317
vn -0.71577774 -0.69337844 -0.08299742
vn -0.71582737 -0.69332651 -0.08300317
vn -0.71582737 -0.69332651 -0.08300317
vn -0.71583331 -0.69333226 -0.08290386
vn -0.71583331 -0.69333226 -0.08290386
vn -0.95837230 0.27319210 -0.08299760
vn -0.95838025 0.27319437 -0.08289829
vn -0.95837230 0.27319210 -0.08299760
vn -0.95837230 0.27319210 -0.08299760
vn -0.95838025 0.27319437 -0.08289829
vn -0.95837230 0.27319210 -0.08299760
vn 0.00000000 0.00000000 1.00000000
vn 0.00000000 0.00000000 1.00000000
vn 0.00000000 0.00000000 1.00000000
vn 0.00000000 0.00000000 1.00000000
vn 0.00000000 0.00000000 1.00000000
vn 0.00000000 0.00000000 1.00000000
vn 0.00000000 0.00000000 1.00000000
vn 0.00000000 0.00000000 1.00000000
vn 0.00000000 0.00000000 1.00000000
vn 0.00000000 0.00000000 1.00000000
vn 0.00000000 0.00000000 1.00000000
vn 0.00000000 0.00000000 1.00000000
vn 0.00000000 0.00000000 1.00000000
vn 0.00000000 0.00000000 1.00000000
vn 0.00000000 0.00000000 1.00000000
vn 0.00000000 0.00000000 1.00000000
vn 0.00000000 0.00000000 1.00000000
vn 0.00000000 0.00000000 1.00000000
vn 0.00000000 0.00000000 1.00000000
vn 0.00000000 0.00000000 1.00000000
vn 0.00000000 0.00000000 1.00000000
vn 0.00000000 0.00000000 1.00000000
vn 0.00000000 0.00000000 1.00000000
vn 0.00000000 0.00000000 1.00000000
vn 0.00000000 0.00000000 1.00000000
vn 0.00000000 0.00000000 1.00000000
vn 0.00000000 0.00000000 1.00000000
vn 0.00000000 0.00000000 1.00000000
vn 0.00000000 0.00000000 1.00000000
vn 0.00000000 0.00000000 1.00000000
vn 0.00000000 0.00000000 1.00000000
vn 0.00000000 0.00000000 1.00000000
vn 0.00000000 0.00000000 1.00000000
vn 0.00000000 0.00000000 1.00000000
vn 0.00000000 0.00000000 1.00000000
vn 0.00000000 0.00000000 1.00000000
vt 0.50296000 0.32526400
vt 0.33911200 0.35487800
vt 0.50296000 0.49176700
vt 0.88664200 0.09084300
vt 0.76416100 0.16044400
vt 0.88664200 0.23172900
vt 0.59738900 0.78576500
vt 0.46961200 0.89251800
vt 0.59738900 0.99927100
vt 0.76361700 0.67528800
vt 0.85603900 0.78150400
vt 0.85603900 0.56909400
vt 0.50441800 0.58395500
vt 0.66826400 0.61354800
vt 0.66826400 0.44703700
vt 0.33911200 0.21761000
vt 0.43154100 0.32380600
vt 0.43154100 0.11141400
vt 0.12850100 0.49601000
vt 0.00072900 0.60278300
vt 0.12850100 0.70953400
vt 0.72872100 0.89307700
vt 0.82114300 0.99927100
vt 0.82114300 0.78686200
vt 0.33765300 0.32562900
vt 0.20924400 0.38636300
vt 0.33765300 0.49176700
vt 0.15796400 0.60331800
vt 0.25038600 0.70953400
vt 0.25038600 0.49712400
vt 0.16457500 0.49455200
vt 0.16457500 0.32804000
vt 0.00072900 0.35763300
vt 0.66973600 0.67531000
vt 0.76215900 0.78150400
vt 0.76215900 0.56909400
vt 0.50441800 0.34016900
vt 0.63283400 0.44557800
vt 0.63283400 0.27945000
vt 0.18747800 0.10938200
vt 0.30996000 0.18066500
vt 0.30996000 0.03979600
vt 0.74940500 0.27799100
vt 0.74940500 0.13627700
vt 0.62764000 0.20712400
vt 0.72726300 0.99927100
vt 0.72726300 0.83314200
vt 0.59884700 0.93855100
vt 0.94509100 0.85839600
vt 0.82260200 0.92966500
vt 0.94509100 0.99927100
vt 0.63429200 0.38484800
vt 0.76270300 0.44557800
vt 0.76270300 0.27945500
vt 0.12321100 0.04220700
vt 0.00072900 0.11349000
vt 0.12321100 0.18307600
vt 0.15091500 0.32658200
vt 0.15091500 0.18453400
vt 0.00072900 0.25556900
vt 0.85659100 0.44557800
vt 0.85659100 0.23318700
vt 0.76416100 0.33938300
vt 0.66827800 0.78150400
vt 0.66827800 0.61500600
vt 0.50441800 0.64460200
vt 0.33765300 0.32417100
vt 0.33765300 0.18212300
vt 0.18747800 0.25314700
vt 0.50441800 0.20712400
vt 0.62618200 0.27799100
vt 0.62618200 0.13627700
vt 0.15238100 0.51990500
vt 0.15238100 0.51761300
vt 0.15034200 0.51656300
vt 0.15049100 0.51876500
vt 0.15448000 0.68525400
vt 0.15461400 0.68729900
vt 0.15650600 0.68808500
vt 0.15650600 0.68594500
vt 0.14189100 0.52113500
vt 0.14189100 0.51884200
vt 0.14000200 0.51998300
vt 0.13985300 0.52218500
vt 0.15650600 0.70524400
vt 0.15650600 0.70310400
vt 0.15448000 0.70241200
vt 0.15461400 0.70445700
vt 0.13199700 0.51989200
vt 0.12995900 0.51884200
vt 0.13010800 0.52104400
vt 0.13199700 0.52218500
vt 0.15448000 0.70953400
vt 0.15650600 0.70884200
vt 0.15650600 0.70670200
vt 0.15461400 0.70748900
vt 0.13549400 0.52113500
vt 0.13549400 0.51884200
vt 0.13360500 0.51998300
vt 0.13345600 0.52218500
vt 0.15448000 0.69237500
vt 0.15650600 0.69168300
vt 0.15650600 0.68954300
vt 0.15461400 0.69033000
vt 0.14888400 0.52113500
vt 0.14888400 0.51884200
vt 0.14699500 0.51998300
vt 0.14684600 0.52218500
vt 0.15650600 0.70095400
vt 0.15650600 0.69881400
vt 0.15448000 0.69812300
vt 0.15461400 0.70016700
vt 0.14538700 0.51989200
vt 0.14334900 0.51884200
vt 0.14349800 0.52104400
vt 0.14538700 0.52218500
vt 0.15448000 0.69666400
vt 0.15650600 0.69597300
vt 0.15650600 0.69383300
vt 0.15461400 0.69462000
vt 0.91340300 0.46776100
vt 0.91339800 0.59278000
vt 0.91560400 0.59415500
vt 0.91560400 0.46669900
vt 0.15288200 0.06267600
vt 0.15287700 0.18519000
vt 0.15504200 0.18639000
vt 0.15504200 0.06176300
vt 0.49415000 0.18507500
vt 0.49414800 0.32332600
vt 0.49656300 0.32380600
vt 0.49656300 0.18510500
vt 0.89177500 0.10391500
vt 0.89177500 0.23172900
vt 0.89399100 0.23089900
vt 0.89399100 0.10300500
vt 0.91706700 0.46776200
vt 0.91706200 0.59278000
vt 0.91926800 0.59415500
vt 0.91926800 0.46670000
vt 0.15650500 0.06251100
vt 0.15650000 0.18517900
vt 0.15866200 0.18639000
vt 0.15866200 0.06161600
vt 0.90460100 0.59324400
vt 0.90460100 0.46543700
vt 0.90238500 0.46626700
vt 0.90238500 0.59415500
vt 0.92439600 0.46792500
vt 0.92439000 0.59279000
vt 0.92659900 0.59415500
vt 0.92659900 0.46684700
vt 0.93534900 0.47027400
vt 0.93534400 0.59294400
vt 0.93750600 0.59415500
vt 0.93750600 0.46938000
vt 0.89503500 0.46634500
vt 0.89503600 0.59415500
vt 0.89725200 0.59332500
vt 0.89725200 0.46543400
vt 0.90973900 0.46776100
vt 0.90973400 0.59278000
vt 0.91194000 0.59415500
vt 0.91194000 0.46669900
vt 0.93897000 0.47044100
vt 0.93896400 0.59295500
vt 0.94112900 0.59415500
vt 0.94112900 0.46952800
vt 0.89031700 0.23081900
vt 0.89031700 0.10300500
vt 0.88810000 0.10383500
vt 0.88810000 0.23172900
vt 0.92073100 0.46776200
vt 0.92072600 0.59278000
vt 0.92293200 0.59415500
vt 0.92293200 0.46670000
vt 0.16037800 0.06251400
vt 0.16037300 0.18518200
vt 0.16253500 0.18639300
vt 0.16253500 0.06161900
vt 0.90827600 0.59324400
vt 0.90827600 0.59324400
vt 0.90827600 0.46543700
vt 0.90605900 0.46626700
vt 0.90605900 0.46626700
vt 0.90605900 0.59415500
vt 0.92806200 0.46792500
vt 0.92805700 0.59279000
vt 0.93026600 0.59415500
vt 0.93026600 0.46684700
vt 0.93172900 0.47027400
vt 0.93172400 0.59294400
vt 0.93388600 0.59415500
vt 0.93388600 0.46938000
vt 0.89871000 0.46626400
vt 0.89871000 0.59415500
vt 0.90092700 0.59324400
vt 0.90092700 0.46543400
vt 0.15478800 0.32658200
vt 0.15478800 0.18787800
vt 0.15237600 0.18784800
vt 0.15237300 0.32610200
vt 0.85991200 0.59415500
vt 0.85991200 0.59415500
vt 0.85991200 0.45545600
vt 0.85750000 0.45542600
vt 0.85750000 0.45542600
vt 0.85749700 0.59367500
vt 0.16253500 0.32658200
vt 0.16253500 0.18788100
vt 0.16012200 0.18785100
vt 0.16012000 0.32610300
vt 0.15866200 0.32658200
vt 0.15866200 0.18787800
vt 0.15624900 0.18784800
vt 0.15624700 0.32610200
vt 0.50043600 0.32380600
vt 0.50043600 0.18510700
vt 0.49802400 0.18507700
vt 0.49802100 0.32332600
vt 0.18908900 0.49455200
vt 0.18908900 0.34103400
vt 0.18642300 0.34141700
vt 0.18641600 0.49377500
vt 0.19321900 0.49455200
vt 0.19321900 0.49455200
vt 0.19321900 0.34103400
vt 0.19055300 0.34141700
vt 0.19055300 0.34141700
vt 0.19054700 0.49377500
vt 0.20148000 0.49455200
vt 0.20148000 0.34104500
vt 0.19881400 0.34142800
vt 0.19880800 0.49377500
vt 0.15301400 0.70953400
vt 0.15301400 0.55601600
vt 0.15034800 0.55639900
vt 0.15034200 0.70875700
vt 0.19735000 0.49455200
vt 0.19735000 0.49455200
vt 0.19735000 0.34103400
vt 0.19468400 0.34141700
vt 0.19468400 0.34141700
vt 0.19467800 0.49377500
vt 0.20561100 0.49455200
vt 0.20561100 0.34104500
vt 0.20294500 0.34142700
vt 0.20293900 0.49377500
vt 0.75883100 0.27765400
vt 0.75883100 0.13933000
vt 0.75641700 0.13936300
vt 0.75641700 0.27799700
vt 0.87666200 0.46525200
vt 0.87666100 0.59305700
vt 0.87887800 0.59415500
vt 0.87887800 0.46625100
vt 0.86911500 0.45583600
vt 0.86911500 0.45583600
vt 0.86911500 0.59415500
vt 0.87152800 0.59412300
vt 0.87152800 0.59412300
vt 0.87152800 0.45549300
vt 0.89136100 0.46525900
vt 0.89136100 0.59305800
vt 0.89357700 0.59415500
vt 0.89357700 0.46625800
vt 0.86378400 0.59381200
vt 0.86378400 0.45549100
vt 0.86137000 0.45552300
vt 0.86137000 0.59415500
vt 0.88255300 0.59415500
vt 0.88255300 0.59415500
vt 0.88255300 0.46635300
vt 0.88033600 0.46525700
vt 0.88033600 0.46525700
vt 0.88033700 0.59315600
vt 0.76270300 0.27765400
vt 0.76270300 0.13933000
vt 0.76028900 0.13936200
vt 0.76028900 0.27799700
vt 0.87520300 0.59415500
vt 0.87520300 0.59415500
vt 0.87520300 0.46635000
vt 0.87298600 0.46525300
vt 0.87298600 0.46525300
vt 0.87298700 0.59315600
vt 0.86765600 0.59381100
vt 0.86765600 0.45549300
vt 0.86524200 0.45552500
vt 0.86524200 0.59415500
vt 0.88990300 0.59415500
vt 0.88990300 0.46635700
vt 0.88768600 0.46526000
vt 0.88768600 0.59315600
vt 0.75495900 0.27765400
vt 0.75495900 0.27765400
vt 0.75495900 0.13933300
vt 0.75254500 0.13936500
vt 0.75254500 0.13936500
vt 0.75254500 0.27799700
vt 0.88401100 0.46525700
vt 0.88401100 0.59305800
vt 0.88622800 0.59415500
vt 0.88622800 0.46625500
vt 0.87697400 0.44557800
vt 0.87697400 0.25968800
vt 0.85804900 0.25968800
vt 0.85804900 0.44557800
vt 0.93958100 0.25968800
vt 0.93958100 0.44557800
vt 0.95850500 0.44557800
vt 0.95850500 0.25968800
vt 0.66972200 0.52711000
vt 0.85561300 0.52711000
vt 0.85561300 0.50818500
vt 0.66972200 0.50818500
vt 0.89881500 0.25968800
vt 0.89881500 0.44557800
vt 0.91773900 0.44557800
vt 0.91773900 0.25968800
vt 0.91864600 0.59561300
vt 0.91864600 0.78150400
vt 0.93757000 0.78150400
vt 0.93757000 0.59561300
vt 0.69030900 0.13481900
vt 0.69030900 0.11589400
vt 0.50441800 0.11589400
vt 0.50441800 0.13481900
vt 0.87642200 0.59561300
vt 0.85749700 0.59561300
vt 0.85749700 0.78150400
vt 0.87642200 0.78150400
vt 0.89735700 0.25968800
vt 0.87843200 0.25968800
vt 0.87843200 0.44557800
vt 0.89735700 0.44557800
vt 0.85561300 0.48634400
vt 0.85561300 0.46742000
vt 0.66972200 0.46742000
vt 0.66972200 0.48634400
vt 0.95941200 0.78150400
vt 0.97833600 0.78150400
vt 0.97833600 0.59561300
vt 0.95941200 0.59561300
vt 0.18495800 0.12131200
vt 0.16603400 0.12131200
vt 0.16603400 0.30720300
vt 0.18495800 0.30720300
vt 0.45192400 0.13791500
vt 0.43299900 0.13791500
vt 0.43299900 0.32380600
vt 0.45192400 0.32380600
vt 0.85561300 0.54749300
vt 0.85561300 0.52856800
vt 0.66972200 0.52856800
vt 0.66972200 0.54749300
vt 0.50296000 0.09405300
vt 0.50296000 0.07512800
vt 0.31706900 0.07512800
vt 0.31706900 0.09405300
vt 0.91718800 0.59561300
vt 0.89826300 0.59561300
vt 0.89826300 0.78150400
vt 0.91718800 0.78150400
vt 0.69030900 0.09405300
vt 0.69030900 0.07512800
vt 0.50441800 0.07512800
vt 0.50441800 0.09405300
vt 0.98585700 0.81338000
vt 0.96693200 0.81338000
vt 0.96693200 0.99927100
vt 0.98585700 0.99927100
vt 0.14888400 0.52364300
vt 0.12995900 0.52364300
vt 0.12995900 0.70953400
vt 0.14888400 0.70953400
vt 0.47230700 0.13791500
vt 0.45338200 0.13791500
vt 0.45338200 0.32380600
vt 0.47230700 0.32380600
vt 0.99871900 0.59561300
vt 0.97979500 0.59561300
vt 0.97979400 0.78150400
vt 0.99871900 0.78150400
vt 0.50296000 0.07367000
vt 0.50296000 0.05474600
vt 0.31706900 0.05474600
vt 0.31706900 0.07367000
vt 0.49269000 0.13791500
vt 0.47376500 0.13791500
vt 0.47376500 0.32380600
vt 0.49269000 0.32380600
vt 0.18495800 0.30866100
vt 0.16603400 0.30866100
vt 0.16603400 0.49455200
vt 0.18495800 0.49455200
vt 0.93958100 0.07233900
vt 0.93958100 0.25822900
vt 0.95850500 0.25822900
vt 0.95850500 0.07233900
vt 0.91919800 0.25968800
vt 0.91919800 0.44557800
vt 0.93812200 0.44557800
vt 0.93812200 0.25968800
vt 0.95996300 0.25968800
vt 0.95996300 0.44557800
vt 0.97888800 0.44557800
vt 0.97888800 0.25968800
vt 0.94654900 0.81338000
vt 0.94655000 0.99927100
vt 0.96547400 0.99927100
vt 0.96547400 0.81338000
vt 0.95996300 0.07233900
vt 0.95996300 0.25822900
vt 0.97888800 0.25822900
vt 0.97888800 0.07233900
vt 0.93902900 0.59561300
vt 0.93902900 0.78150400
vt 0.95795300 0.78150400
vt 0.95795300 0.59561300
vt 0.66972200 0.50672700
vt 0.85561300 0.50672700
vt 0.85561300 0.48780300
vt 0.66972200 0.48780300
vt 0.91919800 0.07233900
vt 0.91919800 0.25822900
vt 0.93812200 0.25822900
vt 0.93812200 0.07233900
vt 0.89680500 0.78150400
vt 0.89680500 0.59561300
vt 0.87788000 0.59561300
vt 0.87788000 0.78150400
vt 0.50441800 0.11443600
vt 0.69030900 0.11443600
vt 0.69030900 0.09551100
vt 0.50441800 0.09551100
vt 0.89881500 0.07233900
vt 0.89881500 0.25822900
vt 0.91773900 0.25822900
vt 0.91773900 0.07233900
vt 0.66972200 0.46596100
vt 0.85561300 0.46596100
vt 0.85561300 0.44703700
vt 0.66972200 0.44703700
vt 0.98034600 0.25968800
vt 0.98034600 0.44557800
vt 0.99927100 0.44557800
vt 0.99927100 0.25968800
vt 0.37667300 0.52879600
vt 0.37667300 0.49322500
vt 0.25184400 0.56529500
vt 0.25184500 0.70943400
vt 0.37667300 0.78150400
vt 0.37667300 0.74593200
vt 0.35782000 0.74428300
vt 0.33954100 0.73938500
vt 0.32238900 0.73138700
vt 0.30688700 0.72053200
vt 0.29350500 0.70715000
vt 0.28265100 0.69164800
vt 0.27465300 0.67449700
vt 0.26975500 0.65621700
vt 0.26810500 0.63736400
vt 0.26975400 0.61851200
vt 0.27465300 0.60023200
vt 0.28265000 0.58308100
vt 0.29350500 0.56757800
vt 0.30688700 0.55419700
vt 0.32238900 0.54334200
vt 0.33954000 0.53534400
vt 0.35782000 0.53044600
vt 0.50296000 0.49322500
vt 0.37813100 0.56529500
vt 0.37813100 0.70943400
vt 0.50296000 0.78150400
vt 0.50295900 0.74593200
vt 0.48410700 0.74428200
vt 0.46582700 0.73938400
vt 0.44867600 0.73138700
vt 0.43317400 0.72053200
vt 0.41979200 0.70715000
vt 0.40893700 0.69164800
vt 0.40093900 0.67449700
vt 0.39604100 0.65621700
vt 0.39439200 0.63736400
vt 0.39604100 0.61851200
vt 0.40093900 0.60023200
vt 0.40893700 0.58308000
vt 0.41979200 0.56757800
vt 0.43317400 0.55419700
vt 0.44867600 0.54334200
vt 0.46582700 0.53534400
vt 0.48410700 0.53044600
vt 0.50296000 0.52879700
vt 0.25038600 0.78306200
vt 0.12555800 0.71099200
vt 0.00072900 0.78306200
vt 0.00072900 0.92720100
vt 0.12555800 0.99927100
vt 0.25038600 0.92720100
vt 0.15094700 0.53372900
vt 0.15034200 0.53564500
vt 0.15163800 0.53718200
vt 0.15363400 0.53723200
vt 0.15363400 0.53498700
vt 0.15276900 0.53291400
vt 0.15276900 0.52568100
vt 0.15363400 0.52360900
vt 0.15363300 0.52136400
vt 0.15163800 0.52141300
vt 0.15034200 0.52295000
vt 0.15094700 0.52486600
vt 0.15276900 0.54878200
vt 0.15363400 0.54671000
vt 0.15363400 0.54446500
vt 0.15163800 0.54451500
vt 0.15034200 0.54605100
vt 0.15094700 0.54796800
vt 0.15363400 0.53145600
vt 0.15363300 0.52921100
vt 0.15276900 0.52713900
vt 0.15094700 0.52795300
vt 0.15034200 0.52987000
vt 0.15163800 0.53140700
vt 0.15276900 0.54300700
vt 0.15363300 0.54093500
vt 0.15363300 0.53869000
vt 0.15163800 0.53873900
vt 0.15034200 0.54027600
vt 0.15094700 0.54219300
vt 0.15276900 0.55455800
vt 0.15363400 0.55248600
vt 0.15363400 0.55024100
vt 0.15163800 0.55029000
vt 0.15034200 0.55182700
vt 0.15094700 0.55374400
vt 0.25184400 0.90057900
vt 0.25513000 0.91921600
vt 0.26160300 0.93699900
vt 0.27106500 0.95338800
vt 0.28323000 0.96788500
vt 0.29772700 0.98005000
vt 0.31411600 0.98951200
vt 0.33189900 0.99598500
vt 0.35053600 0.99927100
vt 0.36946100 0.99927100
vt 0.38809800 0.99598500
vt 0.40588100 0.98951200
vt 0.42227100 0.98005000
vt 0.43676800 0.96788500
vt 0.44893200 0.95338800
vt 0.45839400 0.93699900
vt 0.46486700 0.91921600
vt 0.46815300 0.90057900
vt 0.46815300 0.88165400
vt 0.46486700 0.86301700
vt 0.45839500 0.84523400
vt 0.44893200 0.82884400
vt 0.43676800 0.81434800
vt 0.42227100 0.80218300
vt 0.40588100 0.79272100
vt 0.38809800 0.78624800
vt 0.36946100 0.78296200
vt 0.35053700 0.78296200
vt 0.33189900 0.78624800
vt 0.31411600 0.79272100
vt 0.29772700 0.80218300
vt 0.28323000 0.81434700
vt 0.27106500 0.82884500
vt 0.26160300 0.84523400
vt 0.25513000 0.86301700
vt 0.25184400 0.88165400
f 1/1/1 2/2/2 3/3/3
f 4/4/4 5/5/5 6/6/6
f 7/7/7 8/8/8 9/9/9
f 10/10/10 11/11/11 12/12/12
f 13/13/13 14/14/14 15/15/15
f 16/16/16 17/17/17 18/18/18
f 19/19/19 20/20/20 21/21/21
f 22/22/22 23/23/23 24/24/24
f 25/25/25 26/26/26 27/27/27
f 31/31/31 32/32/32 33/33/33
f 34/34/34 35/35/35 36/36/36
f 37/37/37 38/38/38 39/39/39
f 40/40/40 41/41/41 42/42/42
f 43/43/43 44/44/44 45/45/45
f 46/46/46 47/47/47 48/48/48
f 49/49/49 50/50/50 51/51/51
f 52/52/52 53/53/53 54/54/54
f 55/55/55 56/56/56 57/57/57
f 58/58/58 59/59/59 60/60/60
f 61/61/61 62/62/62 63/63/63
f 64/64/64 65/65/65 66/66/66
f 67/67/67 68/68/68 69/69/69
f 70/70/70 71/71/71 72/72/72
f 121/121/121 122/122/122 123/123/123
f 121/121/121 123/123/123 124/124/124
f 125/125/125 126/126/126 127/127/127
f 125/125/125 127/127/127 128/128/128
f 129/129/129 130/130/130 131/131/131
f 129/129/129 131/131/131 132/132/132
f 133/133/133 134/134/134 135/135/135
f 133/133/133 135/135/135 136/136/136
f 137/137/137 138/138/138 139/139/139
f 137/137/137 139/139/139 140/140/140
f 141/141/141 142/142/142 143/143/143
f 141/141/141 143/143/143 144/144/144
f 145/145/145 146/146/146 147/147/147
f 145/145/145 147/147/147 148/148/148
f 149/149/149 150/150/150 151/151/151
f 149/149/149 151/151/151 152/152/152
f 153/153/153 154/154/154 155/155/155
f 153/153/153 155/155/155 156/156/156
f 157/157/157 158/158/158 159/159/159
f 157/157/157 159/159/159 160/160/160
f 161/161/161 162/162/162 163/163/163
f 161/161/161 163/163/163 164/164/164
f 165/165/165 166/166/166 167/167/167
f 165/165/165 167/167/167 168/168/168
f 169/169/169 170/170/170 171/171/171
f 173/173/173 174/174/174 175/175/175
f 173/173/173 175/175/175 176/176/176
f 177/177/177 178/178/178 179/179/179
f 177/177/177 179/179/179 180/180/180
f 182/182/182 183/183/183 185/185/185
f 181/181/181 184/184/184 186/186/186
f 187/187/187 188/188/188 189/189/189
f 187/187/187 189/189/189 190/190/190
f 191/191/191 192/192/192 193/193/193
f 191/191/191 193/193/193 194/194/194
f 199/199/199 200/200/200 201/201/201
f 199/199/199 201/201/201 202/202/202
f 203/203/203 205/205/205 206/206/206
f 204/204/204 207/207/207 208/208/208
f 209/209/209 210/210/210 211/211/211
f 209/209/209 211/211/211 212/212/212
f 213/213/213 214/214/214 215/215/215
f 213/213/213 215/215/215 216/216/216
f 217/217/217 218/218/218 219/219/219
f 217/217/217 219/219/219 220/220/220
f 221/221/221 222/222/222 223/223/223
f 221/221/221 223/223/223 224/224/224
f 225/225/225 227/227/227 228/228/228
f 226/226/226 229/229/229 230/230/230
f 231/231/231 232/232/232 233/233/233
f 231/231/231 233/233/233 234/234/234
f 235/235/235 236/236/236 237/237/237
f 235/235/235 237/237/237 238/238/238
f 240/240/240 241/241/241 242/242/242
f 239/239/239 243/243/243 244/244/244
f 245/245/245 246/246/246 247/247/247
f 245/245/245 247/247/247 248/248/248
f 249/249/249 250/250/250 251/251/251
f 249/249/249 251/251/251 252/252/252
f 253/253/253 254/254/254 255/255/255
f 253/253/253 255/255/255 256/256/256
f 257/257/257 259/259/259 260/260/260
f 258/258/258 261/261/261 262/262/262
f 263/263/263 264/264/264 265/265/265
f 263/263/263 265/265/265 266/266/266
f 267/267/267 268/268/268 269/269/269
f 267/267/267 269/269/269 270/270/270
f 271/271/271 273/273/273 274/274/274
f 272/272/272 275/275/275 276/276/276
f 277/277/277 278/278/278 279/279/279
f 277/277/277 279/279/279 280/280/280
f 281/281/281 283/283/283 284/284/284
f 282/282/282 285/285/285 286/286/286
f 287/287/287 288/288/288 289/289/289
f 287/287/287 289/289/289 290/290/290
f 291/291/291 292/292/292 293/293/293
f 291/291/291 293/293/293 294/294/294
f 296/296/296 297/297/297 298/298/298
f 295/295/295 299/299/299 300/300/300
f 301/301/301 302/302/302 303/303/303
f 301/301/301 303/303/303 304/304/304
f 305/305/305 306/306/306 307/307/307
f 305/305/305 307/307/307 308/308/308
f 309/309/309 310/310/310 311/311/311
f 309/309/309 311/311/311 312/312/312
f 313/313/313 314/314/314 315/315/315
f 313/313/313 315/315/315 316/316/316
f 317/317/317 318/318/318 319/319/319
f 317/317/317 319/319/319 320/320/320
f 321/321/321 322/322/322 323/323/323
f 321/321/321 323/323/323 324/324/324
f 325/325/325 326/326/326 327/327/327
f 325/325/325 327/327/327 328/328/328
f 329/329/329 330/330/330 331/331/331
f 329/329/329 331/331/331 332/332/332
f 333/333/333 334/334/334 335/335/335
f 333/333/333 335/335/335 336/336/336
f 337/337/337 338/338/338 339/339/339
f 337/337/337 339/339/339 340/340/340
f 341/341/341 342/342/342 343/343/343
f 341/341/341 343/343/343 344/344/344
f 345/345/345 346/346/346 347/347/347
f 345/345/345 347/347/347 348/348/348
f 349/349/349 350/350/350 351/351/351
f 349/349/349 351/351/351 352/352/352
f 353/353/353 354/354/354 355/355/355
f 353/353/353 355/355/355 356/356/356
f 357/357/357 358/358/358 359/359/359
f 357/357/357 359/359/359 360/360/360
f 361/361/361 362/362/362 363/363/363
f 361/361/361 363/363/363 364/364/364
f 365/365/365 366/366/366 367/367/367
f 365/365/365 367/367/367 368/368/368
f 369/369/369 370/370/370 371/371/371
f 369/369/369 371/371/371 372/372/372
f 373/373/373 374/374/374 375/375/375
f 373/373/373 375/375/375 376/376/376
f 377/377/377 378/378/378 379/379/379
f 377/377/377 379/379/379 380/380/380
f 381/381/381 382/382/382 383/383/383
f 381/381/381 383/383/383 384/384/384
f 385/385/385 386/386/386 387/387/387
f 385/385/385 387/387/387 388/388/388
f 389/389/389 390/390/390 391/391/391
f 389/389/389 391/391/391 392/392/392
f 393/393/393 394/394/394 395/395/395
f 393/393/393 395/395/395 396/396/396
f 397/397/397 398/398/398 399/399/399
f 397/397/397 399/399/399 400/400/400
f 401/401/401 402/402/402 403/403/403
f 401/401/401 403/403/403 404/404/404
f 405/405/405 406/406/406 407/407/407
f 405/405/405 407/407/407 408/408/408
f 409/409/409 410/410/410 411/411/411
f 409/409/409 411/411/411 412/412/412
f 413/413/413 414/414/414 415/415/415
f 413/413/413 415/415/415 416/416/416
f 417/417/417 418/418/418 419/419/419
f 417/417/417 419/419/419 420/420/420
f 421/421/421 422/422/422 423/423/423
f 421/421/421 423/423/423 424/424/424
f 425/425/425 426/426/426 427/427/427
f 425/425/425 427/427/427 428/428/428
f 429/429/429 430/430/430 431/431/431
f 429/429/429 431/431/431 432/432/432
f 433/433/433 434/434/434 435/435/435
f 433/433/433 435/435/435 436/436/436
f 437/437/437 438/438/438 439/439/439
f 437/437/437 439/439/439 440/440/440
f 441/441/441 442/442/442 443/443/443
f 441/441/441 443/443/443 444/444/444
f 445/445/445 446/446/446 447/447/447
f 445/445/445 447/447/447 448/448/448
f 450/450/450 471/471/471 449/449/449
f 471/471/471 450/450/450 470/470/470
f 470/470/470 450/450/450 451/451/451
f 470/470/470 451/451/451 469/469/469
f 469/469/469 451/451/451 468/468/468
f 468/468/468 451/451/451 467/467/467
f 467/467/467 451/451/451 466/466/466
f 466/466/466 451/451/451 465/465/465
f 465/465/465 451/451/451 464/464/464
f 464/464/464 451/451/451 463/463/463
f 453/453/453 456/456/456 452/452/452
f 456/456/456 453/453/453 455/455/455
f 455/455/455 453/453/453 454/454/454
f 452/452/452 456/456/456 457/457/457
f 452/452/452 457/457/457 458/458/458
f 452/452/452 458/458/458 459/459/459
f 452/452/452 459/459/459 460/460/460
f 452/452/452 460/460/460 461/461/461
f 452/452/452 461/461/461 462/462/462
f 452/452/452 462/462/462 463/463/463
f 452/452/452 463/463/463 451/451/451
f 474/474/474 484/484/484 473/473/473
f 484/484/484 474/474/474 483/483/483
f 483/483/483 474/474/474 482/482/482
f 482/482/482 474/474/474 481/481/481
f 481/481/481 474/474/474 480/480/480
f 480/480/480 474/474/474 475/475/475
f 473/473/473 484/484/484 485/485/485
f 480/480/480 475/475/475 479/479/479
f 479/479/479 475/475/475 478/478/478
f 478/478/478 475/475/475 477/477/477
f 477/477/477 475/475/475 476/476/476
f 473/473/473 490/490/490 472/472/472
f 490/490/490 473/473/473 489/489/489
f 489/489/489 473/473/473 488/488/488
f 488/488/488 473/473/473 487/487/487
f 487/487/487 473/473/473 486/486/486
f 486/486/486 473/473/473 485/485/485
f 472/472/472 490/490/490 491/491/491
f 472/472/472 491/491/491 492/492/492
f 472/472/472 492/492/492 493/493/493
f 472/472/472 493/493/493 494/494/494
f 496/496/496 500/500/500 495/495/495
f 500/500/500 496/496/496 499/499/499
f 499/499/499 496/496/496 498/498/498
f 498/498/498 496/496/496 497/497/497
f 540/540/540 538/538/538 539/539/539
f 538/538/538 540/540/540 541/541/541
f 538/538/538 541/541/541 537/537/537
f 537/537/537 541/541/541 542/542/542
f 537/537/537 542/542/542 572/572/572
f 572/572/572 542/542/542 543/543/543
f 572/572/572 543/543/543 571/571/571
f 571/571/571 543/543/543 544/544/544
f 571/571/571 544/544/544 570/570/570
f 570/570/570 544/544/544 569/569/569
f 569/569/569 544/544/544 545/545/545
f 569/569/569 545/545/545 568/568/568
f 568/568/568 545/545/545 546/546/546
f 568/568/568 546/546/546 567/567/567
f 567/567/567 546/546/546 547/547/547
f 567/567/567 547/547/547 548/548/548
f 567/567/567 548/548/548 566/566/566
f 566/566/566 548/548/548 549/549/549
f 566/566/566 549/549/549 565/565/565
f 565/565/565 549/549/549 564/564/564
f 564/564/564 549/549/549 550/550/550
f 564/564/564 550/550/550 563/563/563
f 563/563/563 550/550/550 551/551/551
f 563/563/563 551/551/551 562/562/562
f 562/562/562 551/551/551 552/552/552
f 562/562/562 552/552/552 553/553/553
f 562/562/562 553/553/553 561/561/561
f 561/561/561 553/553/553 554/554/554
f 561/561/561 554/554/554 560/560/560
f 560/560/560 554/554/554 555/555/555
f 560/560/560 555/555/555 559/559/559
f 559/559/559 555/555/555 556/556/556
f 559/559/559 556/556/556 558/558/558
f 558/558/558 556/556/556 557/557/557
f 28/28/28 29/29/29 30/30/30
f 73/73/73 74/74/74 75/75/75
f 73/73/73 75/75/75 76/76/76
f 77/77/77 78/78/78 79/79/79
f 77/77/77 79/79/79 80/80/80
f 81/81/81 82/82/82 83/83/83
f 81/81/81 83/83/83 84/84/84
f 85/85/85 86/86/86 87/87/87
f 85/85/85 87/87/87 88/88/88
f 89/89/89 90/90/90 91/91/91
f 89/89/89 91/91/91 92/92/92
f 93/93/93 94/94/94 95/95/95
f 93/93/93 95/95/95 96/96/96
f 97/97/97 98/98/98 99/99/99
f 97/97/97 99/99/99 100/100/100
f 101/101/101 102/102/102 103/103/103
f 101/101/101 103/103/103 104/104/104
f 105/105/105 106/106/106 107/107/107
f 105/105/105 107/107/107 108/108/108
f 109/109/109 110/110/110 111/111/111
f 109/109/109 111/111/111 112/112/112
f 113/113/113 114/114/114 115/115/115
f 113/113/113 115/115/115 116/116/116
f 117/117/117 118/118/118 119/119/119
f 117/117/117 119/119/119 120/120/120
f 169/169/169 171/171/171 172/172/172
f 195/195/195 196/196/196 197/197/197
f 195/195/195 197/197/197 198/198/198
f 506/506/506 504/504/504 505/505/505
f 504/504/504 506/506/506 501/501/501
f 504/504/504 501/501/501 503/503/503
f 503/503/503 501/501/501 502/502/502
f 509/509/509 507/507/507 508/508/508
f 507/507/507 509/509/509 512/512/512
f 512/512/512 509/509/509 510/510/510
f 512/512/512 510/510/510 511/511/511
f 514/514/514 518/518/518 513/513/513
f 518/518/518 514/514/514 517/517/517
f 517/517/517 514/514/514 516/516/516
f 516/516/516 514/514/514 515/515/515
f 521/521/521 519/519/519 520/520/520
f 519/519/519 521/521/521 522/522/522
f 519/519/519 522/522/522 524/524/524
f 524/524/524 522/522/522 523/523/523
f 527/527/527 525/525/525 526/526/526
f 525/525/525 527/527/527 530/530/530
f 530/530/530 527/527/527 528/528/528
f 530/530/530 528/528/528 529/529/529
f 534/534/534 532/532/532 533/533/533
f 532/532/532 534/534/534 535/535/535
f 532/532/532 535/535/535 536/536/536
f 532/532/532 536/536/536 531/531/531