# https://github.com/mikedh/trimesh
mtllib material.mtl
usemtl material_0
v -0.17861059 0.10295611 0.17205290
v -0.17904851 0.10635272 0.17211914
v -0.14763636 0.09552627 0.02866690
v -0.11211370 0.09802496 -0.05065835
v -0.07744846 0.09316374 -0.20312282
v -0.07972268 0.09689522 -0.20389193
v -0.16484018 0.10789094 0.17518823
v -0.16466722 0.10502057 0.17543847
v -0.14534375 0.09886768 0.10571424
v -0.12466236 0.09942703 -0.05188377
v -0.11980481 0.10077022 -0.05440455
v -0.09170463 0.09809120 -0.20618454
v -0.12710586 0.09619970 -0.05549749
v -0.09578203 0.08661709 -0.20704197
v -0.12896792 0.09200823 -0.05420215
v -0.09618314 0.09101832 -0.20735477
v -0.12433853 0.08366944 -0.06189327
v -0.12888696 0.08774315 -0.05234377
v -0.11838067 0.09539011 -0.01120916
v -0.10754686 0.08966409 -0.05836418
v -0.07744846 0.09316374 -0.20312282
v -0.12717578 0.09327046 0.02892449
v -0.17720117 0.10054574 0.17280730
v -0.17861059 0.10295611 0.17205290
v -0.16209861 0.09288774 0.10219252
v -0.13079318 0.10153933 0.03220702
v -0.16665440 0.11077971 0.17472455
v -0.16484018 0.10789094 0.17518823
v -0.11838067 0.09539011 -0.01120916
v -0.13786974 0.10415210 0.02605780
v -0.15600827 0.10972356 0.10285491
v -0.13487426 0.10397178 0.03276637
v -0.08756468 0.09962575 -0.20577239
v -0.09470748 0.09510308 -0.20719285
v -0.14643301 0.09984287 0.03033760
v -0.16014455 0.10824422 0.10198644
v -0.14202074 0.10266908 0.02518565
v -0.09354829 0.08308800 -0.20642742
v -0.17861059 0.10295611 0.17205290
v -0.14624534 0.09098888 0.02472566
v -0.10640608 0.08095731 -0.12811417
v -0.12295118 0.08170434 -0.05075402
v -0.11132618 0.08585533 -0.04831053
v -0.09481052 0.08509726 -0.12567803
v -0.16484018 0.10789094 0.17518823
v -0.07708783 0.08896122 -0.20296458
v -0.16818158 0.09971407 0.17487543
v -0.14997682 0.09158503 0.10497457
v -0.14684517 0.09471300 0.10554865
v -0.16582273 0.10200300 0.17530967
v -0.17790404 0.10933349 0.17225162
v -0.15411677 0.09010569 0.10410610
v -0.16818158 0.09971407 0.17487543
v -0.17128011 0.09861008 0.17422408
v -0.15844073 0.09057304 0.10311251
v -0.17128011 0.09861008 0.17422408
v -0.17449640 0.09890448 0.17348441
v -0.17790404 0.10933349 0.17225162
v -0.17561143 0.11165554 0.17267114
v -0.14397480 0.08727212 0.02539173
v -0.17861059 0.10295611 0.17205290
v -0.17561143 0.11165554 0.17267114
v -0.17251290 0.11275953 0.17332249
v -0.16932605 0.11239521 0.17405480
v -0.16932605 0.11239521 0.17405480
v -0.16582273 0.10200300 0.17530967
v -0.16466722 0.10502057 0.17543847
v -0.16484018 0.10789094 0.17518823
v -0.08331432 0.09916943 -0.20479720
v -0.11551766 0.10033598 -0.05306504
v -0.08995665 0.08081011 -0.20552215
v -0.14030956 0.08495006 0.02631540
v -0.08570629 0.08035379 -0.20454696
v -0.10208212 0.08049363 -0.12712058
v -0.11861251 0.08123698 -0.04976043
v -0.13597088 0.08448271 0.02731267
v -0.08163994 0.08180370 -0.20368953
v -0.09794217 0.08196929 -0.12625211
v -0.11446519 0.08272001 -0.04888828
v -0.13182357 0.08596573 0.02818482
v -0.07856349 0.08487646 -0.20312649
v -0.12868456 0.08910106 0.02875890
v -0.16984125 0.10602888 0.18074497
v -0.17045212 0.10461578 0.18093265
v -0.17045212 0.10461578 0.18093265
v -0.17163339 0.10347499 0.18071553
v -0.17163339 0.10347499 0.18071553
v -0.17322681 0.10290459 0.18038066
v -0.17322681 0.10290459 0.18038066
v -0.17483495 0.10305179 0.18001266
v -0.17483495 0.10305179 0.18001266
v -0.17615238 0.10379146 0.17979554
v -0.17615238 0.10379146 0.17979554
v -0.17688837 0.10481449 0.17949378
v -0.17688837 0.10481449 0.17949378
v -0.17691413 0.10630856 0.17929139
v -0.17691413 0.10630856 0.17929139
v -0.17637686 0.10768854 0.17947170
v -0.17637686 0.10768854 0.17947170
v -0.17519559 0.10882933 0.17968882
v -0.17519559 0.10882933 0.17968882
v -0.17360217 0.10939604 0.18002370
v -0.17360217 0.10939604 0.18002370
v -0.17199402 0.10925253 0.18039170
v -0.17199402 0.10925253 0.18039170
v -0.17069500 0.10849077 0.18048001
v -0.17069500 0.10849077 0.18048001
v -0.17000316 0.10728743 0.18105777
v -0.17000316 0.10728743 0.18105777
v -0.16984125 0.10602888 0.18074497
v -0.09578203 0.08661709 -0.20704197
v -0.09618314 0.09101832 -0.20735477
v -0.09470748 0.09510308 -0.20719285
v -0.09170463 0.09809120 -0.20618454
v -0.08756468 0.09962575 -0.20577239
v -0.08331432 0.09916943 -0.20479720
v -0.07972268 0.09689522 -0.20389193
v -0.07744846 0.09316374 -0.20312282
v -0.07708783 0.08896122 -0.20296458
v -0.07856349 0.08487646 -0.20312649
v -0.08163994 0.08180370 -0.20368953
v -0.08570629 0.08035379 -0.20454696
v -0.08995665 0.08081011 -0.20552215
v -0.09354829 0.08308800 -0.20642742
v -0.17691413 0.10630856 0.17929139
v -0.17688837 0.10481449 0.17949378
v -0.17615238 0.10379146 0.17979554
v -0.17483495 0.10305179 0.18001266
v -0.17322681 0.10290459 0.18038066
v -0.17163339 0.10347499 0.18071553
v -0.17045212 0.10461578 0.18093265
v -0.16984125 0.10602888 0.18074497
v -0.17000316 0.10728743 0.18105777
v -0.17069500 0.10849077 0.18048001
v -0.17199402 0.10925253 0.18039170
v -0.17360217 0.10939604 0.18002370
v -0.17519559 0.10882933 0.17968882
v -0.17637686 0.10768854 0.17947170
v 0.11924546 0.05933753 0.24782330
v 0.11561334 0.05847274 0.24862185
v 0.10298003 0.04639879 0.08531622
v 0.08363448 0.05790235 -0.00902326
v 0.06272126 0.04559656 -0.18180480
v 0.05892354 0.04247595 -0.18127121
v 0.11193338 0.07433706 0.24781594
v 0.11507974 0.07495897 0.24752155
v 0.10922493 0.07349802 0.16675376
v 0.08406135 0.04403258 -0.00625225
v 0.08143386 0.04819093 -0.01016037
v 0.05933201 0.02888218 -0.17983970
v 0.08752420 0.04066541 -0.00990278
v 0.07246947 0.02571005 -0.18152880
v 0.09260254 0.03963870 -0.00869943
v 0.06767817 0.02463550 -0.18095841
v 0.09991462 0.04307579 -0.01972091
v 0.09750057 0.04085677 -0.00751080
v 0.09284910 0.06443060 0.03417580
v 0.09098336 0.06126951 -0.02004107
v 0.06272126 0.04559656 -0.18180480
v 0.10201956 0.06844176 0.07895725
v 0.12174783 0.06137623 0.24776442
v 0.11924546 0.05933753 0.24782330
v 0.11813779 0.05534110 0.16707392
v 0.09401933 0.06465508 0.08499238
v 0.10901885 0.07190828 0.24838634
v 0.11193338 0.07433706 0.24781594
v 0.09284910 0.06443060 0.03417580
v 0.09153903 0.05482590 0.08109898
v 0.09877016 0.05991897 0.16889182
v 0.09212415 0.06020600 0.08725556
v 0.05700996 0.03321349 -0.18039170
v 0.06297885 0.02574685 -0.18051681
v 0.09827336 0.04768310 0.08748004
v 0.10097077 0.05543677 0.16896910
v 0.09374701 0.05032899 0.08117994
v 0.07603536 0.02871658 -0.18217648
v 0.11924546 0.05933753 0.24782330
v 0.10718255 0.04715318 0.07991772
v 0.09100176 0.04085309 -0.09574891
v 0.10331859 0.04841541 -0.00870311
v 0.09713257 0.06101192 -0.00892391
v 0.08483414 0.05341648 -0.09597339
v 0.11193338 0.07433706 0.24781594
v 0.06728073 0.04655335 -0.18249295
v 0.12140192 0.07170956 0.24705787
v 0.11788388 0.06925135 0.16609873
v 0.11400520 0.07236828 0.16630480
v 0.11855731 0.07406842 0.24720139
v 0.11217258 0.05935961 0.24893833
v 0.12008449 0.06476916 0.16617969
v 0.12140192 0.07170956 0.24705787
v 0.12305054 0.06835344 0.24711675
v 0.12017281 0.05980489 0.16652560
v 0.12305054 0.06835344 0.24711675
v 0.12317198 0.06466612 0.24737067
v 0.11217258 0.05935961 0.24893833
v 0.10929853 0.06163751 0.24909289
v 0.11095451 0.05023699 0.07927740
v 0.11924546 0.05933753 0.24782330
v 0.10929853 0.06163751 0.24909289
v 0.10765358 0.06499363 0.24903401
v 0.10761310 0.06865520 0.24877641
v 0.10761310 0.06865520 0.24877641
v 0.11855731 0.07406842 0.24720139
v 0.11507974 0.07495897 0.24752155
v 0.11193338 0.07433706 0.24781594
v 0.05692164 0.03808944 -0.18073393
v 0.08136026 0.05322144 -0.01012357
v 0.07803726 0.03309941 -0.18271743
v 0.11300057 0.05471182 0.07872909
v 0.07794894 0.03797904 -0.18305599
v 0.09090976 0.04581736 -0.09609851
v 0.10322659 0.05339072 -0.00904902
v 0.11290857 0.05968713 0.07837949
v 0.07578512 0.04238395 -0.18313695
v 0.08870914 0.05029955 -0.09617578
v 0.10101861 0.05788763 -0.00912998
v 0.11070059 0.06418404 0.07830221
v 0.07197636 0.04544568 -0.18293455
v 0.10681455 0.06730833 0.07850829
v 0.11555814 0.07108029 0.25489251
v 0.11723620 0.07066813 0.25502867
v 0.11723620 0.07066813 0.25502867
v 0.11865299 0.06949055 0.25495507
v 0.11865299 0.06949055 0.25495507
v 0.11950306 0.06776096 0.25498451
v 0.11950306 0.06776096 0.25498451
v 0.11956562 0.06592098 0.25510963
v 0.11956562 0.06592098 0.25510963
v 0.11895106 0.06436068 0.25541506
v 0.11895106 0.06436068 0.25541506
v 0.11791331 0.06335605 0.25549970
v 0.11791331 0.06335605 0.25549970
v 0.11625365 0.06308005 0.25555490
v 0.11625365 0.06308005 0.25555490
v 0.11468231 0.06353269 0.25582354
v 0.11468231 0.06353269 0.25582354
v 0.11326184 0.06471396 0.25589714
v 0.11326184 0.06471396 0.25589714
v 0.11241177 0.06643986 0.25586770
v 0.11241177 0.06643986 0.25586770
v 0.11234921 0.06828352 0.25574258
v 0.11234921 0.06828352 0.25574258
v 0.11297113 0.06978494 0.25530466
v 0.11297113 0.06978494 0.25530466
v 0.11424807 0.07085213 0.25549234
v 0.11424807 0.07085213 0.25549234
v 0.11555814 0.07108029 0.25489251
v 0.07246947 0.02571005 -0.18152880
v 0.06767817 0.02463550 -0.18095841
v 0.06297885 0.02574685 -0.18051681
v 0.05933201 0.02888218 -0.17983970
v 0.05700996 0.03321349 -0.18039170
v 0.05692164 0.03808944 -0.18073393
v 0.05892354 0.04247595 -0.18127121
v 0.06272126 0.04559656 -0.18180480
v 0.06728073 0.04655335 -0.18249295
v 0.07197636 0.04544568 -0.18293455
v 0.07578512 0.04238395 -0.18313695
v 0.07794894 0.03797904 -0.18305599
v 0.07803726 0.03309941 -0.18271743
v 0.07603536 0.02871658 -0.18217648
v 0.11625365 0.06308005 0.25555490
v 0.11791331 0.06335605 0.25549970
v 0.11895106 0.06436068 0.25541506
v 0.11956562 0.06592098 0.25510963
v 0.11950306 0.06776096 0.25498451
v 0.11865299 0.06949055 0.25495507
v 0.11723620 0.07066813 0.25502867
v 0.11555814 0.07108029 0.25489251
v 0.11424807 0.07085213 0.25549234
v 0.11297113 0.06978494 0.25530466
v 0.11234921 0.06828352 0.25574258
v 0.11241177 0.06643986 0.25586770
v 0.11326184 0.06471396 0.25589714
v 0.11468231 0.06353269 0.25582354
v 0.03060256 -0.17392784 0.10158533
v 0.03127231 -0.17099123 0.10281075
v 0.00940966 -0.12923840 -0.02886194
v 0.01519456 -0.10179325 -0.10654223
v -0.00496427 -0.05195921 -0.24505229
v -0.00600202 -0.04812101 -0.24365759
v 0.04469681 -0.17312561 0.09998086
v 0.04406017 -0.17569422 0.09926695
v 0.03658985 -0.15679762 0.03335885
v 0.00464043 -0.09813904 -0.10203060
v 0.00834983 -0.09677746 -0.10563696
v -0.01647887 -0.04431225 -0.24029410
v 0.00046736 -0.09908847 -0.10490465
v -0.02364375 -0.05310736 -0.24271184
v -0.00195774 -0.10287147 -0.10433426
v -0.02275688 -0.04917348 -0.24150113
v -0.00297341 -0.10770326 -0.11487367
v -0.00258701 -0.10723591 -0.10412818
v 0.02152409 -0.11842667 -0.07294419
v 0.01411265 -0.10662871 -0.11707060
v -0.00496427 -0.05195921 -0.24505229
v 0.02608724 -0.13449338 -0.03761656
v 0.03130175 -0.17649646 0.10090821
v 0.03060256 -0.17392784 0.10158533
v 0.01953691 -0.15786849 0.03555210
v 0.02655460 -0.12816017 -0.03106623
v 0.04389090 -0.17020004 0.10119157
v 0.04469681 -0.17312561 0.09998086
v 0.02152409 -0.11842667 -0.07294419
v 0.01943019 -0.12241943 -0.03239102
v 0.02995120 -0.14475679 0.03857335
v 0.02401175 -0.12566147 -0.02824370
v -0.01239411 -0.04382282 -0.24118833
v -0.02022875 -0.04599399 -0.24076882
v 0.01225059 -0.12640115 -0.02673124
v 0.02574133 -0.14502175 0.03911431
v 0.01520560 -0.12268438 -0.03184638
v -0.02262440 -0.05670636 -0.24415806
v 0.03060256 -0.17392784 0.10158533
v 0.00798184 -0.13178493 -0.03394396
v -0.00948326 -0.08702188 -0.17637686
v 0.00110767 -0.11393712 -0.10702799
v 0.01293874 -0.11319376 -0.10854781
v 0.00231470 -0.08628221 -0.17789300
v 0.04469681 -0.17312561 0.09998086
v -0.00587322 -0.05565389 -0.24631084
v 0.03931670 -0.17943675 0.09867448
v 0.03025296 -0.16197901 0.03250142
v 0.03401756 -0.16003599 0.03261182
v 0.04213556 -0.17803100 0.09874440
v 0.03317853 -0.16868758 0.10333331
v 0.02604308 -0.16224397 0.03304237
v 0.03931670 -0.17943675 0.09867448
v 0.03616666 -0.17963546 0.09908295
v 0.02221961 -0.16077934 0.03413164
v 0.03616666 -0.17963546 0.09908295
v 0.03330733 -0.17858667 0.09987783
v 0.03317853 -0.16868758 0.10333331
v 0.03594586 -0.16723399 0.10342163
v 0.00898647 -0.13556793 -0.03541963
v 0.03060256 -0.17392784 0.10158533
v 0.03594586 -0.16723399 0.10342163
v 0.03909591 -0.16703528 0.10301683
v 0.04190740 -0.16813926 0.10221092
v 0.04190740 -0.16813926 0.10221092
v 0.04213556 -0.17803100 0.09874440
v 0.04406017 -0.17569422 0.09926695
v 0.04469681 -0.17312561 0.09998086
v -0.00863687 -0.04526536 -0.24225920
v 0.01226163 -0.09834880 -0.10642080
v -0.01998955 -0.05956569 -0.24555277
v 0.01167284 -0.13848614 -0.03684377
v -0.01623231 -0.06100456 -0.24662364
v -0.00565978 -0.08849019 -0.17746613
v 0.00494219 -0.11540910 -0.10812094
v 0.01551104 -0.13995444 -0.03793672
v -0.01209603 -0.06074696 -0.24715355
v -0.00144990 -0.08822523 -0.17800708
v 0.00916678 -0.11514414 -0.10866189
v 0.01973195 -0.13968948 -0.03848135
v -0.00839767 -0.05883706 -0.24704315
v 0.02350759 -0.13774279 -0.03836727
v 0.04166452 -0.17608798 0.10594608
v 0.04078133 -0.17726925 0.10592768
v 0.04078133 -0.17726925 0.10592768
v 0.03937558 -0.17796844 0.10589456
v 0.03937558 -0.17796844 0.10589456
v 0.03775272 -0.17806780 0.10610432
v 0.03775272 -0.17806780 0.10610432
v 0.03632122 -0.17754893 0.10650176
v 0.03632122 -0.17754893 0.10650176
v 0.03536443 -0.17662525 0.10707951
v 0.03536443 -0.17662525 0.10707951
v 0.03495595 -0.17551759 0.10743647
v 0.03495595 -0.17551759 0.10743647
v 0.03532027 -0.17416336 0.10772350
v 0.03532027 -0.17416336 0.10772350
v 0.03624394 -0.17314401 0.10805470
v 0.03624394 -0.17314401 0.10805470
v 0.03765336 -0.17244482 0.10808782
v 0.03765336 -0.17244482 0.10808782
v 0.03927623 -0.17234178 0.10787806
v 0.03927623 -0.17234178 0.10787806
v 0.04070405 -0.17286433 0.10748063
v 0.04070405 -0.17286433 0.10748063
v 0.04160196 -0.17375121 0.10679983
v 0.04160196 -0.17375121 0.10679983
v 0.04200308 -0.17510911 0.10663423
v 0.04200308 -0.17510911 0.10663423
v 0.04166452 -0.17608798 0.10594608
v -0.02364375 -0.05310736 -0.24271184
v -0.02275688 -0.04917348 -0.24150113
v -0.02022875 -0.04599399 -0.24076882
v -0.01647887 -0.04431225 -0.24029410
v -0.01239411 -0.04382282 -0.24118833
v -0.00863687 -0.04526536 -0.24225920
v -0.00600202 -0.04812101 -0.24365759
v -0.00496427 -0.05195921 -0.24505229
v -0.00587322 -0.05565389 -0.24631084
v -0.00839767 -0.05883706 -0.24704315
v -0.01209603 -0.06074696 -0.24715355
v -0.01623231 -0.06100456 -0.24662364
v -0.01998955 -0.05956569 -0.24555277
v -0.02262440 -0.05670636 -0.24415806
v 0.03532027 -0.17416336 0.10772350
v 0.03495595 -0.17551759 0.10743647
v 0.03536443 -0.17662525 0.10707951
v 0.03632122 -0.17754893 0.10650176
v 0.03775272 -0.17806780 0.10610432
v 0.03937558 -0.17796844 0.10589456
v 0.04078133 -0.17726925 0.10592768
v 0.04166452 -0.17608798 0.10594608
v 0.04200308 -0.17510911 0.10663423
v 0.04160196 -0.17375121 0.10679983
v 0.04070405 -0.17286433 0.10748063
v 0.03927623 -0.17234178 0.10787806
v 0.03765336 -0.17244482 0.10808782
v 0.03624394 -0.17314401 0.10805470
vn -0.95042091 -0.30800678 0.04280094
vn -0.99156167 0.12739508 0.02399907
vn -0.96894288 0.11250498 -0.22020974
vn 0.68041832 0.72101941 0.13100353
vn 0.84210626 0.22680169 -0.48930364
vn 0.65791606 0.51761264 -0.54701336
vn 0.83743048 0.32021165 0.44291612
vn 0.86114604 -0.12350660 0.49312637
vn 0.96927041 0.00159995 0.24599249
vn -0.50910522 0.84920871 -0.14020144
vn -0.10380479 0.99364588 -0.04350201
vn -0.26279024 0.64097619 -0.72117322
vn -0.82292111 0.53551374 -0.18980487
vn -0.55430775 -0.27200380 -0.78661099
vn -0.96932887 0.11630346 -0.21650645
vn -0.58657771 0.07329721 -0.80656935
vn -0.67957925 -0.72067800 -0.13709581
vn -0.92260196 -0.33400071 -0.19300041
vn 0.93416112 0.29688764 0.19799176
vn 0.97029666 -0.12079958 0.20959928
vn 0.84206505 0.22679059 -0.48937969
vn 0.97330819 -0.00020000 0.22950193
vn -0.72328671 -0.67248764 0.15689712
vn -0.95042091 -0.30800678 0.04280094
vn -0.76128348 -0.63808616 -0.11529750
vn 0.72928811 0.66968908 0.14019771
vn 0.60602122 0.71002487 0.35861256
vn 0.83740366 0.32030140 0.44290194
vn 0.93416112 0.29688764 0.19799176
vn -0.10139536 0.99195457 -0.07579653
vn -0.00900010 0.99831066 -0.05740061
vn 0.33519163 0.94187648 0.02269943
vn 0.06030110 0.72271314 -0.68851252
vn -0.46740219 0.38480181 -0.79590374
vn -0.81918905 0.52969292 -0.21989706
vn -0.58150094 0.79390129 -0.17770029
vn -0.50679826 0.84689710 -0.16099945
vn -0.37259266 -0.55048915 -0.74708528
vn -0.95042091 -0.30800678 0.04280094
vn -0.93831012 -0.28570308 -0.19480210
vn -0.32339034 -0.94407181 -0.06439808
vn -0.31919078 -0.94677265 -0.04169880
vn 0.81768969 -0.54079318 0.19729751
vn 0.82679527 -0.53379695 0.17739899
vn 0.83743048 0.32021165 0.44291612
vn 0.86543950 -0.10940499 -0.48892231
vn 0.41471032 -0.79901988 0.43541083
vn 0.49391424 -0.84562438 0.20240584
vn 0.80309068 -0.53999373 0.25189708
vn 0.71253981 -0.50602828 0.48602716
vn -0.86853911 0.49492228 0.02630118
vn 0.09359598 -0.98855759 0.11829492
vn 0.41471032 -0.79901988 0.43541083
vn 0.03759835 -0.93365897 0.35618435
vn -0.32900858 -0.94422462 0.01390036
vn 0.03759835 -0.93365897 0.35618435
vn -0.35919707 -0.89709267 0.25729790
vn -0.86854139 0.49492358 0.02620125
vn -0.58668222 0.80567558 0.08179752
vn -0.72561306 -0.67641217 -0.12630227
vn -0.95042091 -0.30800678 0.04280094
vn -0.58668701 0.80568217 0.08169819
vn -0.10560451 0.97744177 0.18290782
vn 0.30629393 0.91138193 0.27489455
vn 0.30629393 0.91138193 0.27489455
vn 0.71253981 -0.50602828 0.48602716
vn 0.86114604 -0.12350660 0.49312637
vn 0.83743048 0.32021165 0.44291612
vn 0.38081468 0.69592683 -0.60882347
vn 0.31789201 0.94697618 0.04669883
vn -0.10119705 -0.72187899 -0.68458008
vn -0.32529583 -0.94538789 -0.02059974
vn 0.22319603 -0.75758653 -0.61338909
vn 0.11189794 -0.99328175 0.02949946
vn 0.10800244 -0.99292246 0.04940112
vn 0.10100325 -0.99163187 0.08040258
vn 0.52349147 -0.65048940 -0.55029103
vn 0.51558160 -0.84916970 0.11439592
vn 0.51109821 -0.84899702 0.13409953
vn 0.50409921 -0.84769867 0.16519974
vn 0.75663736 -0.41612054 -0.50432490
vn 0.81359345 -0.53869567 0.21879824
vn 0.39139108 -0.04589895 0.91907905
vn 0.24580156 -0.24970159 0.93660595
vn 0.24580156 -0.24970159 0.93660595
vn 0.08840041 -0.41720195 0.90450423
vn 0.08840041 -0.41720195 0.90450423
vn -0.12139292 -0.49277125 0.86164973
vn -0.12140338 -0.49281371 0.86162397
vn -0.34390316 -0.47990441 0.80710741
vn -0.34390316 -0.47990441 0.80710741
vn -0.55101385 -0.34570869 0.75951909
vn -0.55108348 -0.34568964 0.75947724
vn -0.71241166 -0.15060246 0.68541121
vn -0.71241166 -0.15060246 0.68541121
vn -0.72830222 0.10980034 0.67640207
vn -0.72830222 0.10980034 0.67640207
vn -0.62438414 0.34279129 0.70188217
vn -0.62440554 0.34270304 0.70190623
vn -0.45911719 0.50981909 0.72752725
vn -0.45911719 0.50981909 0.72752725
vn -0.23519597 0.58868991 0.77338674
vn -0.23519597 0.58868991 0.77338674
vn -0.00650011 0.55680979 0.83061460
vn -0.00650011 0.55680979 0.83061460
vn 0.23119599 0.46519192 0.85448516
vn 0.23119599 0.46519192 0.85448516
vn 0.31430501 0.21560344 0.92451475
vn 0.31439513 0.21559666 0.92448568
vn 0.39139108 -0.04589895 0.91907905
vn -0.55430775 -0.27200380 -0.78661099
vn -0.58657771 0.07329721 -0.80656935
vn -0.46740219 0.38480181 -0.79590374
vn -0.26279024 0.64097619 -0.72117322
vn 0.06029674 0.72276091 -0.68846276
vn 0.38090018 0.69590033 -0.60880029
vn 0.65791606 0.51761264 -0.54701336
vn 0.84206505 0.22679059 -0.48937969
vn 0.86546459 -0.10939552 -0.48888000
vn 0.75668010 -0.41608906 -0.50428674
vn 0.52349147 -0.65048940 -0.55029103
vn 0.22319603 -0.75758653 -0.61338909
vn -0.10120398 -0.72192841 -0.68452694
vn -0.37251386 -0.55062048 -0.74702779
vn -0.72830222 0.10980034 0.67640207
vn -0.71240092 -0.15070020 0.68540089
vn -0.55108348 -0.34568964 0.75947724
vn -0.34391966 -0.47982743 0.80714615
vn -0.12149742 -0.49268955 0.86168172
vn 0.08840041 -0.41720195 0.90450423
vn 0.24579542 -0.24979535 0.93658256
vn 0.39139108 -0.04589895 0.91907905
vn 0.31439513 0.21559666 0.92448568
vn 0.23121574 0.46523167 0.85445817
vn -0.00649975 0.55687878 0.83056835
vn -0.23519597 0.58868991 0.77338674
vn -0.45910719 0.50970799 0.72761140
vn -0.62440554 0.34270304 0.70190623
vn 0.45157697 -0.85605633 0.25148717
vn 0.02839993 -0.94909760 0.31369921
vn 0.01030051 -0.99724912 0.07340362
vn -0.79501600 0.60431216 0.05250106
vn -0.40898586 0.63187815 -0.65837723
vn -0.67320568 0.40770344 -0.61690520
vn -0.38831232 0.88912821 0.24220769
vn 0.04950154 0.97573043 0.21330665
vn -0.11919837 0.99238640 -0.03099958
vn -0.77269763 -0.61909810 0.14019957
vn -0.96436539 -0.22189204 0.14409483
vn -0.67531687 -0.53151328 -0.51131278
vn -0.42318583 -0.89676997 0.12929567
vn 0.25679375 -0.72588234 -0.63808448
vn 0.00719970 -0.99695883 0.07759680
vn -0.07950152 -0.80081528 -0.59361132
vn 0.79413134 -0.60492387 -0.05850231
vn 0.44451431 -0.89562884 0.01600052
vn -0.40929112 0.91218022 -0.02019956
vn -0.00329986 0.99635871 -0.08519647
vn -0.40892842 0.63184391 -0.65844576
vn -0.12000153 0.99161261 -0.04800061
vn 0.78838757 -0.56639107 0.24009621
vn 0.45157697 -0.85605633 0.25148717
vn 0.72779263 -0.68579306 -0.00239998
vn -0.75091069 0.65920938 0.03970056
vn -0.74567890 0.60128299 0.28709188
vn -0.38831232 0.88912821 0.24220769
vn -0.40941171 0.91212608 -0.02020058
vn -0.96691471 -0.22890348 0.11260171
vn -0.98498838 -0.13639839 0.10579875
vn -0.97223396 0.22030770 0.07890276
vn -0.80068692 -0.22409634 -0.55559093
vn -0.40189307 -0.71918760 -0.56679023
vn -0.42171808 -0.90133864 0.09870423
vn -0.71190062 -0.69270060 0.11560010
vn -0.77329824 -0.62269859 0.11939973
vn 0.50720508 -0.51070511 -0.69420695
vn 0.45158832 -0.85607786 0.25139350
vn 0.39940085 -0.91640194 0.02620006
vn 0.96762178 -0.22090497 -0.12210275
vn 0.97236803 -0.20999310 -0.10199665
vn 0.43000615 0.89461279 -0.12150174
vn 0.41938438 0.89666660 -0.14179472
vn -0.38831232 0.88912821 0.24220769
vn -0.08259657 0.69157127 -0.71757019
vn 0.77311728 0.61001363 0.17370388
vn 0.77888893 0.62249115 -0.07639891
vn 0.43811156 0.89652366 -0.06560173
vn 0.44649572 0.87509162 0.18669821
vn -0.35060338 -0.87250842 0.34030328
vn 0.96986488 0.23349155 -0.06959748
vn 0.77311728 0.61001363 0.17370388
vn 0.95300669 0.24360171 0.18010126
vn 0.97802478 -0.20330515 -0.04620117
vn 0.95300669 0.24360171 0.18010126
vn 0.96547439 -0.16619559 0.20059468
vn -0.35060338 -0.87250842 0.34030328
vn -0.69160456 -0.62320411 0.36510241
vn 0.75865441 -0.65086089 -0.02869828
vn 0.45157697 -0.85605633 0.25148717
vn -0.69160456 -0.62320411 0.36510241
vn -0.92107913 -0.15569647 0.35689191
vn -0.90776704 0.26969021 0.32128833
vn -0.90776704 0.26969021 0.32128833
vn 0.44649572 0.87509162 0.18669821
vn 0.04960130 0.97572559 0.21330560
vn -0.38831232 0.88912821 0.24220769
vn -0.81350541 0.10660071 -0.57170380
vn -0.97178587 0.21009694 0.10719844
vn 0.64166617 -0.21558863 -0.73606119
vn 0.97442660 -0.20990573 -0.08020219
vn 0.63601063 0.11730196 -0.76271275
vn 0.96106121 0.22559089 -0.15959356
vn 0.96371826 0.22750431 -0.13960265
vn 0.96722521 0.22980599 -0.10800281
vn 0.49290403 0.40910335 -0.76790629
vn 0.76859174 0.61769336 -0.16649821
vn 0.77146793 0.61917426 -0.14649391
vn 0.77492547 0.62152043 -0.11490378
vn 0.23300696 0.61791847 -0.75092245
vn 0.43121198 0.89672492 -0.09970277
vn 0.09569974 0.64519822 0.75799790
vn 0.31979793 0.53469653 0.78219493
vn 0.31979793 0.53469653 0.78219493
vn 0.50429973 0.39439979 0.76819958
vn 0.50429973 0.39439979 0.76819958
vn 0.60509957 0.19099986 0.77289945
vn 0.60508801 0.19109621 0.77288469
vn 0.61966968 -0.03759816 0.78396165
vn 0.61966735 -0.03769801 0.78395869
vn 0.51380268 -0.26330137 0.81650425
vn 0.51380268 -0.26330137 0.81650425
vn 0.33800723 -0.45990984 0.82111756
vn 0.33800723 -0.45990984 0.82111756
vn 0.08379993 -0.50659959 0.85809931
vn 0.08379569 -0.50667392 0.85805584
vn -0.15749567 -0.42648827 0.89067551
vn -0.15739815 -0.42649499 0.89068953
vn -0.34339766 -0.28059809 0.89629390
vn -0.34340730 -0.28050596 0.89631905
vn -0.44931709 -0.06320240 0.89113389
vn -0.44931709 -0.06320240 0.89113389
vn -0.44587965 0.17429204 0.87795992
vn -0.44587965 0.17429204 0.87795992
vn -0.38920285 0.41730305 0.82120601
vn -0.38921909 0.41722046 0.82124027
vn -0.14850128 0.54450470 0.82550712
vn -0.14850128 0.54450470 0.82550712
vn 0.09569974 0.64519822 0.75799790
vn 0.25681239 -0.72583503 -0.63813079
vn -0.07940215 -0.80082164 -0.59361604
vn -0.40189307 -0.71918760 -0.56679023
vn -0.67531687 -0.53151328 -0.51131278
vn -0.80073141 -0.22410879 -0.55552179
vn -0.81350541 0.10660071 -0.57170380
vn -0.67320568 0.40770344 -0.61690520
vn -0.40901170 0.63181807 -0.65841883
vn -0.08260250 0.69162090 -0.71752168
vn 0.23300696 0.61791847 -0.75092245
vn 0.49290403 0.40910335 -0.76790629
vn 0.63601063 0.11730196 -0.76271275
vn 0.64171340 -0.21560450 -0.73601536
vn 0.50730525 -0.51060529 -0.69420719
vn 0.08379569 -0.50667392 0.85805584
vn 0.33800723 -0.45990984 0.82111756
vn 0.51380268 -0.26330137 0.81650425
vn 0.61966968 -0.03759816 0.78396165
vn 0.60509957 0.19099986 0.77289945
vn 0.50429867 0.39459896 0.76809798
vn 0.31988769 0.53467943 0.78216991
vn 0.09569974 0.64519822 0.75799790
vn -0.14850128 0.54450470 0.82550712
vn -0.38921909 0.41722046 0.82124027
vn -0.44588742 0.17419508 0.87797522
vn -0.44931425 -0.06330201 0.89112825
vn -0.34329794 -0.28039832 0.89639462
vn -0.15739815 -0.42649499 0.89068953
vn -0.92813214 -0.13550469 0.34671201
vn -0.83302183 0.26940706 0.48321266
vn -0.89852662 0.35251044 0.26150775
vn 0.87648674 0.47939275 0.04419933
vn 0.65819965 0.26409986 -0.70499963
vn 0.56750308 0.57910314 -0.58530318
vn 0.99243921 -0.03410135 0.11790466
vn 0.88962250 -0.45651155 0.01300033
vn 0.94348093 -0.26089473 -0.20439587
vn -0.22991326 0.90365212 0.36132084
vn 0.20789486 0.92597711 0.31519221
vn -0.26948867 0.91446154 -0.30188730
vn -0.62469654 0.69499615 0.35599803
vn -0.83931878 0.17140383 -0.51591154
vn -0.89649354 0.35439744 0.26589808
vn -0.76528441 0.49448992 -0.41209160
vn -0.87767352 -0.47668562 -0.04959850
vn -0.98974028 -0.06660271 0.12640514
vn 0.98991172 0.02940035 -0.13860164
vn 0.89355646 -0.35588266 -0.27368666
vn 0.65819965 0.26409986 -0.70499963
vn 0.94103272 -0.25640892 -0.22070768
vn -0.80391185 -0.54690806 0.23370345
vn -0.92813214 -0.13550469 0.34671201
vn -0.91691193 -0.39800518 0.02940038
vn 0.90679640 0.42129833 0.01509994
vn 0.88226103 0.38848284 0.26588825
vn 0.99243921 -0.03410135 0.11790466
vn 0.98991172 0.02940035 -0.13860164
vn 0.19889971 0.93729862 0.28619958
vn 0.28920810 0.92002576 0.26440740
vn 0.60376772 0.77925834 0.16799102
vn 0.05449969 0.92059471 -0.38669778
vn -0.55721202 0.74951617 -0.35740771
vn -0.63320839 0.70150930 0.32700433
vn -0.32419955 0.88149877 0.34329952
vn -0.23551060 0.90974096 0.34191540
vn -0.75288763 -0.12489795 -0.64618938
vn -0.92813214 -0.13550469 0.34671201
vn -0.98899379 -0.01999987 0.14659908
vn -0.60770816 -0.76611029 -0.20920281
vn -0.59740993 -0.77851294 -0.19240320
vn 0.62090577 -0.70190652 -0.34900324
vn 0.62460752 -0.68900830 -0.36760443
vn 0.99243921 -0.03410135 0.11790466
vn 0.57271126 -0.04130081 -0.81871610
vn 0.25980442 -0.96411639 -0.05460093
vn 0.23830056 -0.92340219 -0.30090071
vn 0.62620303 -0.72120349 -0.29620143
vn 0.63408033 -0.77177606 -0.04799851
vn -0.60652988 0.57752846 0.54642692
vn -0.19070046 -0.95040231 -0.24570060
vn 0.25971116 -0.96414143 -0.05460235
vn -0.14430433 -0.98952967 -0.00270008
vn -0.58680102 -0.79750138 -0.14020024
vn -0.14430433 -0.98952967 -0.00270008
vn -0.51818548 -0.85007617 0.09409736
vn -0.60659309 0.57749343 0.54639378
vn -0.23929764 0.78639225 0.56949439
vn -0.90098475 -0.43379266 -0.00709988
vn -0.92813214 -0.13550469 0.34671201
vn -0.23929764 0.78639225 0.56949439
vn 0.27628812 0.81876479 0.50327835
vn 0.65191765 0.65321768 0.38511043
vn 0.65191765 0.65321768 0.38511043
vn 0.63401748 -0.77182128 -0.04810133
vn 0.88962250 -0.45651155 0.01300033
vn 0.99243921 -0.03410135 0.11790466
vn 0.35720291 0.81050659 -0.46420378
vn 0.59771762 0.77702290 0.19740582
vn -0.54529821 -0.34929885 -0.76199749
vn -0.59552702 -0.78483561 -0.17140778
vn -0.24469883 -0.46449778 -0.85109594
vn -0.20530804 -0.92123607 -0.33041294
vn -0.20210729 -0.92843349 -0.31171124
vn -0.19770448 -0.93882125 -0.28200638
vn 0.07710031 -0.44440177 -0.89250356
vn 0.22729135 -0.89406598 -0.38598531
vn 0.22979322 -0.90127340 -0.36728916
vn 0.23430004 -0.91170017 -0.33750006
vn 0.37370720 -0.29190563 -0.88041697
vn 0.62499413 -0.70819334 -0.32839691
vn 0.63778887 -0.48369156 0.59938954
vn 0.44960220 -0.64930318 0.61340300
vn 0.44960220 -0.64930318 0.61340300
vn 0.24599136 -0.76007330 0.60147887
vn 0.24600615 -0.76011901 0.60141504
vn 0.02140041 -0.77531493 0.63121215
vn 0.02140041 -0.77531493 0.63121215
vn -0.19028928 -0.70436032 0.68386148
vn -0.19030268 -0.70430993 0.68390965
vn -0.34769151 -0.53008705 0.77338111
vn -0.34779784 -0.52999671 0.77339520
vn -0.45390588 -0.29780386 0.83981088
vn -0.45389236 -0.29789499 0.83978587
vn -0.38850769 -0.05800115 0.91961820
vn -0.38859259 -0.05799889 0.91958247
vn -0.21398883 0.12309357 0.96904941
vn -0.21401220 0.12300701 0.96905524
vn -0.00570015 0.23480616 0.97202550
vn -0.00560015 0.23480629 0.97202605
vn 0.23360078 0.24940083 0.93980312
vn 0.23360078 0.24940083 0.93980312
vn 0.44569782 0.15929922 0.88089569
vn 0.44569782 0.15929922 0.88089569
vn 0.63582602 0.02780114 0.77133156
vn 0.63582602 0.02780114 0.77133156
vn 0.65388719 -0.23859533 0.71798594
vn 0.65388719 -0.23859533 0.71798594
vn 0.63769132 -0.48369341 0.59949184
vn -0.83933316 0.17130677 -0.51592038
vn -0.76528441 0.49448992 -0.41209160
vn -0.55721202 0.74951617 -0.35740771
vn -0.26948867 0.91446154 -0.30188730
vn 0.05449969 0.92059471 -0.38669778
vn 0.35727356 0.81044002 -0.46426564
vn 0.56747021 0.57916960 -0.58526928
vn 0.65819965 0.26409986 -0.70499963
vn 0.57270889 -0.04140064 -0.81871271
vn 0.37370720 -0.29190563 -0.88041697
vn 0.07710031 -0.44440177 -0.89250356
vn -0.24469883 -0.46449778 -0.85109594
vn -0.54529821 -0.34929885 -0.76199749
vn -0.75288763 -0.12489795 -0.64618938
vn -0.38850769 -0.05800115 0.91961820
vn -0.45389236 -0.29789499 0.83978587
vn -0.34770994 -0.53001515 0.77342210
vn -0.19028928 -0.70436032 0.68386148
vn 0.02140041 -0.77531493 0.63121215
vn 0.24601006 -0.76003107 0.60152459
vn 0.44960220 -0.64930318 0.61340300
vn 0.63778149 -0.48358596 0.59948260
vn 0.65388719 -0.23859533 0.71798594
vn 0.63588558 0.02779937 0.77128252
vn 0.44561768 0.15930632 0.88093495
vn 0.23351205 0.24931287 0.93984851
vn -0.00570002 0.23490065 0.97200267
vn -0.21400957 0.12310550 0.96904331
vt 0.50421200 0.00908200
vt 0.42857100 0.00657900
vt 0.42857100 0.19602200
vt 0.07142800 0.30107300
vt -0.00000000 0.49866200
vt 0.07142800 0.50000000
vt 0.99810000 0.00856900
vt 0.92857100 0.00649400
vt 0.92857100 0.10000000
vt 0.28571400 0.30000000
vt 0.21428600 0.30344600
vt 0.28571400 0.49850000
vt 0.35714300 0.30322000
vt 0.50000000 0.49874500
vt 0.42857100 0.30107300
vt 0.42857100 0.50000000
vt 0.57142800 0.31037800
vt 0.50000000 0.30000000
vt 1.00000000 0.25183600
vt 0.92857100 0.31037800
vt 1.00000000 0.49866200
vt 0.92857100 0.20000000
vt 0.57142800 0.00649300
vt 0.50196800 0.00884900
vt 0.57142800 0.10000000
vt 0.07142800 0.19602200
vt 0.07142800 0.00657600
vt -0.00503500 0.00881500
vt -0.00000000 0.25183600
vt 0.21428600 0.20000000
vt 0.21428600 0.10000000
vt 0.14285700 0.19383300
vt 0.21428600 0.50000000
vt 0.35714300 0.50000000
vt 0.35714300 0.19383300
vt 0.28571400 0.10000000
vt 0.28571400 0.20000000
vt 0.57142800 0.50000000
vt 0.50264700 0.00879300
vt 0.50000000 0.20000000
vt 0.64285700 0.40000000
vt 0.64285700 0.30000000
vt 0.85714300 0.30000000
vt 0.85714300 0.40000000
vt -0.00432200 0.00851100
vt 0.92857100 0.50000000
vt 0.78571400 0.00649100
vt 0.78571400 0.10000000
vt 0.85714300 0.10000000
vt 0.85714300 0.00649200
vt 0.35714300 0.00657000
vt 0.71428600 0.10000000
vt 0.78571400 0.00649100
vt 0.71428600 0.00649100
vt 0.64285700 0.10000000
vt 0.71428600 0.00649000
vt 0.64285700 0.00649200
vt 0.35714300 0.00657000
vt 0.28571400 0.00652700
vt 0.57142800 0.20000000
vt 0.50264500 0.00881000
vt 0.28571400 0.00652700
vt 0.21428600 0.00652700
vt 0.14285700 0.00656800
vt 0.14285700 0.00656800
vt 0.85714300 0.00649200
vt 0.92857100 0.00649400
vt 0.99695400 0.00852100
vt 0.14285700 0.50000000
vt 0.14285700 0.30322000
vt 0.64285700 0.50000000
vt 0.64285700 0.20000000
vt 0.71428600 0.50000000
vt 0.71428600 0.40000000
vt 0.71428600 0.30000000
vt 0.71428600 0.20000000
vt 0.78571400 0.50000000
vt 0.78571400 0.40000000
vt 0.78571400 0.30000000
vt 0.78571400 0.20000000
vt 0.85714300 0.50000000
vt 0.85714300 0.20000000
vt 0.91008700 0.00000000
vt 0.87542100 0.00000000
vt 0.83934200 0.00000000
vt 0.80279000 0.00000000
vt 0.76883100 0.00000000
vt 0.73116900 0.00000000
vt 0.69721000 0.00000000
vt 0.66065800 0.00000000
vt 0.62457900 0.00000000
vt 0.59005800 0.00000000
vt 0.55162900 0.00065400
vt 0.52257100 0.00161400
vt 0.47924400 0.00167400
vt 0.44763400 0.00063000
vt 0.40906600 0.00000000
vt 0.37542000 0.00000000
vt 0.33934200 0.00000000
vt 0.30279000 0.00000000
vt 0.26883100 0.00000000
vt 0.23116900 0.00000000
vt 0.19721000 0.00000000
vt 0.16065800 0.00000000
vt 0.12457900 0.00000000
vt 0.09078700 0.00000000
vt 0.05245000 0.00056600
vt 0.02024100 0.00152800
vt 0.97805100 0.00147700
vt 0.94822100 0.00058700
vt 0.75000000 0.99000000
vt 0.64586800 0.96623300
vt 0.56236000 0.89963800
vt 0.51601700 0.80340500
vt 0.51601700 0.69659500
vt 0.56236000 0.60036200
vt 0.64586800 0.53376700
vt 0.75000000 0.51000000
vt 0.85413200 0.53376700
vt 0.93764000 0.60036200
vt 0.98398300 0.69659500
vt 0.98398300 0.80340500
vt 0.93764000 0.89963800
vt 0.85413200 0.96623300
vt 0.20235500 0.85946700
vt 0.25217400 0.87335700
vt 0.29517100 0.86050600
vt 0.33493500 0.82734700
vt 0.35878300 0.77814300
vt 0.35878600 0.72185500
vt 0.33494600 0.67264900
vt 0.29422200 0.64029700
vt 0.25214900 0.62965300
vt 0.20317200 0.64113100
vt 0.16402900 0.67264800
vt 0.14043600 0.72185500
vt 0.14043400 0.77814300
vt 0.16401900 0.82734900
vt 0.50421200 0.00908200
vt 0.42857100 0.00657900
vt 0.42857100 0.19602200
vt 0.07142800 0.30107300
vt -0.00000000 0.49866200
vt 0.07142800 0.50000000
vt 0.99810000 0.00856900
vt 0.92857100 0.00649400
vt 0.92857100 0.10000000
vt 0.28571400 0.30000000
vt 0.21428600 0.30344600
vt 0.28571400 0.49850000
vt 0.35714300 0.30322000
vt 0.50000000 0.49874500
vt 0.42857100 0.30107300
vt 0.42857100 0.50000000
vt 0.57142800 0.31037800
vt 0.50000000 0.30000000
vt 1.00000000 0.25183600
vt 0.92857100 0.31037800
vt 1.00000000 0.49866200
vt 0.92857100 0.20000000
vt 0.57142800 0.00649300
vt 0.50196800 0.00884900
vt 0.57142800 0.10000000
vt 0.07142800 0.19602200
vt 0.07142800 0.00657600
vt -0.00503500 0.00881500
vt -0.00000000 0.25183600
vt 0.21428600 0.20000000
vt 0.21428600 0.10000000
vt 0.14285700 0.19383300
vt 0.21428600 0.50000000
vt 0.35714300 0.50000000
vt 0.35714300 0.19383300
vt 0.28571400 0.10000000
vt 0.28571400 0.20000000
vt 0.57142800 0.50000000
vt 0.50264700 0.00879300
vt 0.50000000 0.20000000
vt 0.64285700 0.40000000
vt 0.64285700 0.30000000
vt 0.85714300 0.30000000
vt 0.85714300 0.40000000
vt -0.00432200 0.00851100
vt 0.92857100 0.50000000
vt 0.78571400 0.00649100
vt 0.78571400 0.10000000
vt 0.85714300 0.10000000
vt 0.85714300 0.00649200
vt 0.35714300 0.00657000
vt 0.71428600 0.10000000
vt 0.78571400 0.00649100
vt 0.71428600 0.00649100
vt 0.64285700 0.10000000
vt 0.71428600 0.00649000
vt 0.64285700 0.00649200
vt 0.35714300 0.00657000
vt 0.28571400 0.00652700
vt 0.57142800 0.20000000
vt 0.50264500 0.00881000
vt 0.28571400 0.00652700
vt 0.21428600 0.00652700
vt 0.14285700 0.00656800
vt 0.14285700 0.00656800
vt 0.85714300 0.00649200
vt 0.92857100 0.00649400
vt 0.99695400 0.00852100
vt 0.14285700 0.50000000
vt 0.14285700 0.30322000
vt 0.64285700 0.50000000
vt 0.64285700 0.20000000
vt 0.71428600 0.50000000
vt 0.71428600 0.40000000
vt 0.71428600 0.30000000
vt 0.71428600 0.20000000
vt 0.78571400 0.50000000
vt 0.78571400 0.40000000
vt 0.78571400 0.30000000
vt 0.78571400 0.20000000
vt 0.85714300 0.50000000
vt 0.85714300 0.20000000
vt 0.91008700 0.00000000
vt 0.87542100 0.00000000
vt 0.83934200 0.00000000
vt 0.80279000 0.00000000
vt 0.76883100 0.00000000
vt 0.73116900 0.00000000
vt 0.69721000 0.00000000
vt 0.66065800 0.00000000
vt 0.62457900 0.00000000
vt 0.59005800 0.00000000
vt 0.55162900 0.00065400
vt 0.52257100 0.00161400
vt 0.47924400 0.00167400
vt 0.44763400 0.00063000
vt 0.40906600 0.00000000
vt 0.37542000 0.00000000
vt 0.33934200 0.00000000
vt 0.30279000 0.00000000
vt 0.26883100 0.00000000
vt 0.23116900 0.00000000
vt 0.19721000 0.00000000
vt 0.16065800 0.00000000
vt 0.12457900 0.00000000
vt 0.09078700 0.00000000
vt 0.05245000 0.00056600
vt 0.02024100 0.00152800
vt 0.97805100 0.00147700
vt 0.94822100 0.00058700
vt 0.75000000 0.99000000
vt 0.64586800 0.96623300
vt 0.56236000 0.89963800
vt 0.51601700 0.80340500
vt 0.51601700 0.69659500
vt 0.56236000 0.60036200
vt 0.64586800 0.53376700
vt 0.75000000 0.51000000
vt 0.85413200 0.53376700
vt 0.93764000 0.60036200
vt 0.98398300 0.69659500
vt 0.98398300 0.80340500
vt 0.93764000 0.89963800
vt 0.85413200 0.96623300
vt 0.20235500 0.85946700
vt 0.25217400 0.87335700
vt 0.29517100 0.86050600
vt 0.33493500 0.82734700
vt 0.35878300 0.77814300
vt 0.35878600 0.72185500
vt 0.33494600 0.67264900
vt 0.29422200 0.64029700
vt 0.25214900 0.62965300
vt 0.20317200 0.64113100
vt 0.16402900 0.67264800
vt 0.14043600 0.72185500
vt 0.14043400 0.77814300
vt 0.16401900 0.82734900
vt 0.50421200 0.00908200
vt 0.42857100 0.00657900
vt 0.42857100 0.19602200
vt 0.07142800 0.30107300
vt -0.00000000 0.49866200
vt 0.07142800 0.50000000
vt 0.99810000 0.00856900
vt 0.92857100 0.00649400
vt 0.92857100 0.10000000
vt 0.28571400 0.30000000
vt 0.21428600 0.30344600
vt 0.28571400 0.49850000
vt 0.35714300 0.30322000
vt 0.50000000 0.49874500
vt 0.42857100 0.30107300
vt 0.42857100 0.50000000
vt 0.57142800 0.31037800
vt 0.50000000 0.30000000
vt 1.00000000 0.25183600
vt 0.92857100 0.31037800
vt 1.00000000 0.49866200
vt 0.92857100 0.20000000
vt 0.57142800 0.00649300
vt 0.50196800 0.00884900
vt 0.57142800 0.10000000
vt 0.07142800 0.19602200
vt 0.07142800 0.00657600
vt -0.00503500 0.00881500
vt -0.00000000 0.25183600
vt 0.21428600 0.20000000
vt 0.21428600 0.10000000
vt 0.14285700 0.19383300
vt 0.21428600 0.50000000
vt 0.35714300 0.50000000
vt 0.35714300 0.19383300
vt 0.28571400 0.10000000
vt 0.28571400 0.20000000
vt 0.57142800 0.50000000
vt 0.50264700 0.00879300
vt 0.50000000 0.20000000
vt 0.64285700 0.40000000
vt 0.64285700 0.30000000
vt 0.85714300 0.30000000
vt 0.85714300 0.40000000
vt -0.00432200 0.00851100
vt 0.92857100 0.50000000
vt 0.78571400 0.00649100
vt 0.78571400 0.10000000
vt 0.85714300 0.10000000
vt 0.85714300 0.00649200
vt 0.35714300 0.00657000
vt 0.71428600 0.10000000
vt 0.78571400 0.00649100
vt 0.71428600 0.00649100
vt 0.64285700 0.10000000
vt 0.71428600 0.00649000
vt 0.64285700 0.00649200
vt 0.35714300 0.00657000
vt 0.28571400 0.00652700
vt 0.57142800 0.20000000
vt 0.50264500 0.00881000
vt 0.28571400 0.00652700
vt 0.21428600 0.00652700
vt 0.14285700 0.00656800
vt 0.14285700 0.00656800
vt 0.85714300 0.00649200
vt 0.92857100 0.00649400
vt 0.99695400 0.00852100
vt 0.14285700 0.50000000
vt 0.14285700 0.30322000
vt 0.64285700 0.50000000
vt 0.64285700 0.20000000
vt 0.71428600 0.50000000
vt 0.71428600 0.40000000
vt 0.71428600 0.30000000
vt 0.71428600 0.20000000
vt 0.78571400 0.50000000
vt 0.78571400 0.40000000
vt 0.78571400 0.30000000
vt 0.78571400 0.20000000
vt 0.85714300 0.50000000
vt 0.85714300 0.20000000
vt 0.91008700 0.00000000
vt 0.87542100 0.00000000
vt 0.83934200 0.00000000
vt 0.80279000 0.00000000
vt 0.76883100 0.00000000
vt 0.73116900 0.00000000
vt 0.69721000 0.00000000
vt 0.66065800 0.00000000
vt 0.62457900 0.00000000
vt 0.59005800 0.00000000
vt 0.55162900 0.00065400
vt 0.52257100 0.00161400
vt 0.47924400 0.00167400
vt 0.44763400 0.00063000
vt 0.40906600 0.00000000
vt 0.37542000 0.00000000
vt 0.33934200 0.00000000
vt 0.30279000 0.00000000
vt 0.26883100 0.00000000
vt 0.23116900 0.00000000
vt 0.19721000 0.00000000
vt 0.16065800 0.00000000
vt 0.12457900 0.00000000
vt 0.09078700 0.00000000
vt 0.05245000 0.00056600
vt 0.02024100 0.00152800
vt 0.97805100 0.00147700
vt 0.94822100 0.00058700
vt 0.75000000 0.99000000
vt 0.64586800 0.96623300
vt 0.56236000 0.89963800
vt 0.51601700 0.80340500
vt 0.51601700 0.69659500
vt 0.56236000 0.60036200
vt 0.64586800 0.53376700
vt 0.75000000 0.51000000
vt 0.85413200 0.53376700
vt 0.93764000 0.60036200
vt 0.98398300 0.69659500
vt 0.98398300 0.80340500
vt 0.93764000 0.89963800
vt 0.85413200 0.96623300
vt 0.20235500 0.85946700
vt 0.25217400 0.87335700
vt 0.29517100 0.86050600
vt 0.33493500 0.82734700
vt 0.35878300 0.77814300
vt 0.35878600 0.72185500
vt 0.33494600 0.67264900
vt 0.29422200 0.64029700
vt 0.25214900 0.62965300
vt 0.20317200 0.64113100
vt 0.16402900 0.67264800
vt 0.14043600 0.72185500
vt 0.14043400 0.77814300
vt 0.16401900 0.82734900
f 1/1/1 2/2/2 3/3/3
f 4/4/4 5/5/5 6/6/6
f 7/7/7 8/8/8 9/9/9
f 10/10/10 11/11/11 12/12/12
f 13/13/13 10/10/10 12/12/12
f 14/14/14 15/15/15 16/16/16
f 17/17/17 18/18/18 14/14/14
f 19/19/19 20/20/20 21/21/21
f 19/19/19 22/22/22 20/20/20
f 23/23/23 24/24/24 25/25/25
f 26/26/26 27/27/27 28/28/28
f 4/4/4 29/29/29 5/5/5
f 4/4/4 26/26/26 29/29/29
f 30/30/30 31/31/31 32/32/32
f 12/12/12 11/11/11 33/33/33
f 34/34/34 13/13/13 12/12/12
f 35/35/35 36/36/36 37/37/37
f 14/14/14 18/18/18 15/15/15
f 38/38/38 17/17/17 14/14/14
f 39/39/39 3/3/3 40/40/40
f 41/41/41 42/42/42 17/17/17
f 20/20/20 43/43/43 44/44/44
f 26/26/26 45/45/45 29/29/29
f 21/21/21 20/20/20 46/46/46
f 47/47/47 48/48/48 49/49/49
f 47/47/47 49/49/49 50/50/50
f 35/35/35 3/3/3 2/2/2
f 35/35/35 2/2/2 51/51/51
f 52/52/52 48/48/48 53/53/53
f 52/52/52 53/53/53 54/54/54
f 55/55/55 52/52/52 56/56/56
f 55/55/55 56/56/56 57/57/57
f 25/25/25 55/55/55 57/57/57
f 25/25/25 57/57/57 23/23/23
f 36/36/36 35/35/35 58/58/58
f 36/36/36 58/58/58 59/59/59
f 40/40/40 60/60/60 25/25/25
f 40/40/40 25/25/25 61/61/61
f 31/31/31 36/36/36 62/62/62
f 31/31/31 62/62/62 63/63/63
f 64/64/64 32/32/32 31/31/31
f 64/64/64 31/31/31 63/63/63
f 27/27/27 26/26/26 32/32/32
f 27/27/27 32/32/32 65/65/65
f 66/66/66 49/49/49 9/9/9
f 66/66/66 9/9/9 67/67/67
f 9/9/9 22/22/22 19/19/19
f 9/9/9 19/19/19 68/68/68
f 6/6/6 69/69/69 70/70/70
f 6/6/6 70/70/70 4/4/4
f 26/26/26 4/4/4 70/70/70
f 26/26/26 70/70/70 32/32/32
f 69/69/69 33/33/33 11/11/11
f 69/69/69 11/11/11 70/70/70
f 32/32/32 70/70/70 11/11/11
f 32/32/32 11/11/11 30/30/30
f 11/11/11 10/10/10 37/37/37
f 11/11/11 37/37/37 30/30/30
f 30/30/30 37/37/37 36/36/36
f 30/30/30 36/36/36 31/31/31
f 10/10/10 13/13/13 35/35/35
f 10/10/10 35/35/35 37/37/37
f 13/13/13 34/34/34 16/16/16
f 13/13/13 16/16/16 15/15/15
f 13/13/13 15/15/15 3/3/3
f 13/13/13 3/3/3 35/35/35
f 15/15/15 18/18/18 40/40/40
f 15/15/15 40/40/40 3/3/3
f 18/18/18 17/17/17 60/60/60
f 18/18/18 60/60/60 40/40/40
f 17/17/17 38/38/38 71/71/71
f 17/17/17 71/71/71 41/41/41
f 17/17/17 42/42/42 72/72/72
f 17/17/17 72/72/72 60/60/60
f 60/60/60 72/72/72 55/55/55
f 60/60/60 55/55/55 25/25/25
f 41/41/41 71/71/71 73/73/73
f 41/41/41 73/73/73 74/74/74
f 42/42/42 41/41/41 74/74/74
f 42/42/42 74/74/74 75/75/75
f 42/42/42 75/75/75 76/76/76
f 42/42/42 76/76/76 72/72/72
f 72/72/72 76/76/76 52/52/52
f 72/72/72 52/52/52 55/55/55
f 73/73/73 77/77/77 78/78/78
f 73/73/73 78/78/78 74/74/74
f 74/74/74 78/78/78 79/79/79
f 74/74/74 79/79/79 75/75/75
f 75/75/75 79/79/79 80/80/80
f 75/75/75 80/80/80 76/76/76
f 76/76/76 80/80/80 48/48/48
f 76/76/76 48/48/48 52/52/52
f 77/77/77 81/81/81 44/44/44
f 77/77/77 44/44/44 78/78/78
f 78/78/78 44/44/44 43/43/43
f 78/78/78 43/43/43 79/79/79
f 80/80/80 79/79/79 43/43/43
f 80/80/80 43/43/43 82/82/82
f 48/48/48 80/80/80 82/82/82
f 48/48/48 82/82/82 49/49/49
f 81/81/81 46/46/46 20/20/20
f 81/81/81 20/20/20 44/44/44
f 82/82/82 43/43/43 20/20/20
f 82/82/82 20/20/20 22/22/22
f 49/49/49 82/82/82 22/22/22
f 49/49/49 22/22/22 9/9/9
f 66/66/66 67/67/67 83/83/83
f 66/66/66 83/83/83 84/84/84
f 47/47/47 50/50/50 85/85/85
f 47/47/47 85/85/85 86/86/86
f 54/54/54 53/53/53 87/87/87
f 54/54/54 87/87/87 88/88/88
f 57/57/57 56/56/56 89/89/89
f 57/57/57 89/89/89 90/90/90
f 23/23/23 57/57/57 91/91/91
f 23/23/23 91/91/91 92/92/92
f 24/24/24 23/23/23 93/93/93
f 24/24/24 93/93/93 94/94/94
f 2/2/2 1/1/1 95/95/95
f 2/2/2 95/95/95 96/96/96
f 51/51/51 2/2/2 97/97/97
f 51/51/51 97/97/97 98/98/98
f 59/59/59 58/58/58 99/99/99
f 59/59/59 99/99/99 100/100/100
f 63/63/63 62/62/62 101/101/101
f 63/63/63 101/101/101 102/102/102
f 64/64/64 63/63/63 103/103/103
f 64/64/64 103/103/103 104/104/104
f 27/27/27 65/65/65 105/105/105
f 27/27/27 105/105/105 106/106/106
f 28/28/28 27/27/27 107/107/107
f 28/28/28 107/107/107 108/108/108
f 8/8/8 7/7/7 109/109/109
f 8/8/8 109/109/109 110/110/110
f 115/115/115 113/113/113 114/114/114
f 113/113/113 115/115/115 116/116/116
f 113/113/113 116/116/116 112/112/112
f 112/112/112 116/116/116 117/117/117
f 112/112/112 117/117/117 111/111/111
f 111/111/111 117/117/117 118/118/118
f 111/111/111 118/118/118 124/124/124
f 124/124/124 118/118/118 119/119/119
f 124/124/124 119/119/119 123/123/123
f 123/123/123 119/119/119 120/120/120
f 123/123/123 120/120/120 122/122/122
f 122/122/122 120/120/120 121/121/121
f 138/138/138 136/136/136 137/137/137
f 136/136/136 138/138/138 135/135/135
f 135/135/135 138/138/138 125/125/125
f 135/135/135 125/125/125 134/134/134
f 134/134/134 125/125/125 126/126/126
f 134/134/134 126/126/126 133/133/133
f 133/133/133 126/126/126 127/127/127
f 133/133/133 127/127/127 132/132/132
f 132/132/132 127/127/127 128/128/128
f 132/132/132 128/128/128 131/131/131
f 131/131/131 128/128/128 129/129/129
f 131/131/131 129/129/129 130/130/130
f 139/139/139 140/140/140 141/141/141
f 142/142/142 143/143/143 144/144/144
f 145/145/145 146/146/146 147/147/147
f 148/148/148 149/149/149 150/150/150
f 151/151/151 148/148/148 150/150/150
f 152/152/152 153/153/153 154/154/154
f 155/155/155 156/156/156 152/152/152
f 157/157/157 158/158/158 159/159/159
f 157/157/157 160/160/160 158/158/158
f 161/161/161 162/162/162 163/163/163
f 164/164/164 165/165/165 166/166/166
f 142/142/142 167/167/167 143/143/143
f 142/142/142 164/164/164 167/167/167
f 168/168/168 169/169/169 170/170/170
f 150/150/150 149/149/149 171/171/171
f 172/172/172 151/151/151 150/150/150
f 173/173/173 174/174/174 175/175/175
f 152/152/152 156/156/156 153/153/153
f 176/176/176 155/155/155 152/152/152
f 177/177/177 141/141/141 178/178/178
f 179/179/179 180/180/180 155/155/155
f 158/158/158 181/181/181 182/182/182
f 164/164/164 183/183/183 167/167/167
f 159/159/159 158/158/158 184/184/184
f 185/185/185 186/186/186 187/187/187
f 185/185/185 187/187/187 188/188/188
f 173/173/173 141/141/141 140/140/140
f 173/173/173 140/140/140 189/189/189
f 190/190/190 186/186/186 191/191/191
f 190/190/190 191/191/191 192/192/192
f 193/193/193 190/190/190 194/194/194
f 193/193/193 194/194/194 195/195/195
f 163/163/163 193/193/193 195/195/195
f 163/163/163 195/195/195 161/161/161
f 174/174/174 173/173/173 196/196/196
f 174/174/174 196/196/196 197/197/197
f 178/178/178 198/198/198 163/163/163
f 178/178/178 163/163/163 199/199/199
f 169/169/169 174/174/174 200/200/200
f 169/169/169 200/200/200 201/201/201
f 202/202/202 170/170/170 169/169/169
f 202/202/202 169/169/169 201/201/201
f 165/165/165 164/164/164 170/170/170
f 165/165/165 170/170/170 203/203/203
f 204/204/204 187/187/187 147/147/147
f 204/204/204 147/147/147 205/205/205
f 147/147/147 160/160/160 157/157/157
f 147/147/147 157/157/157 206/206/206
f 144/144/144 207/207/207 208/208/208
f 144/144/144 208/208/208 142/142/142
f 164/164/164 142/142/142 208/208/208
f 164/164/164 208/208/208 170/170/170
f 207/207/207 171/171/171 149/149/149
f 207/207/207 149/149/149 208/208/208
f 170/170/170 208/208/208 149/149/149
f 170/170/170 149/149/149 168/168/168
f 149/149/149 148/148/148 175/175/175
f 149/149/149 175/175/175 168/168/168
f 168/168/168 175/175/175 174/174/174
f 168/168/168 174/174/174 169/169/169
f 148/148/148 151/151/151 173/173/173
f 148/148/148 173/173/173 175/175/175
f 151/151/151 172/172/172 154/154/154
f 151/151/151 154/154/154 153/153/153
f 151/151/151 153/153/153 141/141/141
f 151/151/151 141/141/141 173/173/173
f 153/153/153 156/156/156 178/178/178
f 153/153/153 178/178/178 141/141/141
f 156/156/156 155/155/155 198/198/198
f 156/156/156 198/198/198 178/178/178
f 155/155/155 176/176/176 209/209/209
f 155/155/155 209/209/209 179/179/179
f 155/155/155 180/180/180 210/210/210
f 155/155/155 210/210/210 198/198/198
f 198/198/198 210/210/210 193/193/193
f 198/198/198 193/193/193 163/163/163
f 179/179/179 209/209/209 211/211/211
f 179/179/179 211/211/211 212/212/212
f 180/180/180 179/179/179 212/212/212
f 180/180/180 212/212/212 213/213/213
f 180/180/180 213/213/213 214/214/214
f 180/180/180 214/214/214 210/210/210
f 210/210/210 214/214/214 190/190/190
f 210/210/210 190/190/190 193/193/193
f 211/211/211 215/215/215 216/216/216
f 211/211/211 216/216/216 212/212/212
f 212/212/212 216/216/216 217/217/217
f 212/212/212 217/217/217 213/213/213
f 213/213/213 217/217/217 218/218/218
f 213/213/213 218/218/218 214/214/214
f 214/214/214 218/218/218 186/186/186
f 214/214/214 186/186/186 190/190/190
f 215/215/215 219/219/219 182/182/182
f 215/215/215 182/182/182 216/216/216
f 216/216/216 182/182/182 181/181/181
f 216/216/216 181/181/181 217/217/217
f 218/218/218 217/217/217 181/181/181
f 218/218/218 181/181/181 220/220/220
f 186/186/186 218/218/218 220/220/220
f 186/186/186 220/220/220 187/187/187
f 219/219/219 184/184/184 158/158/158
f 219/219/219 158/158/158 182/182/182
f 220/220/220 181/181/181 158/158/158
f 220/220/220 158/158/158 160/160/160
f 187/187/187 220/220/220 160/160/160
f 187/187/187 160/160/160 147/147/147
f 204/204/204 205/205/205 221/221/221
f 204/204/204 221/221/221 222/222/222
f 185/185/185 188/188/188 223/223/223
f 185/185/185 223/223/223 224/224/224
f 192/192/192 191/191/191 225/225/225
f 192/192/192 225/225/225 226/226/226
f 195/195/195 194/194/194 227/227/227
f 195/195/195 227/227/227 228/228/228
f 161/161/161 195/195/195 229/229/229
f 161/161/161 229/229/229 230/230/230
f 162/162/162 161/161/161 231/231/231
f 162/162/162 231/231/231 232/232/232
f 140/140/140 139/139/139 233/233/233
f 140/140/140 233/233/233 234/234/234
f 189/189/189 140/140/140 235/235/235
f 189/189/189 235/235/235 236/236/236
f 197/197/197 196/196/196 237/237/237
f 197/197/197 237/237/237 238/238/238
f 201/201/201 200/200/200 239/239/239
f 201/201/201 239/239/239 240/240/240
f 202/202/202 201/201/201 241/241/241
f 202/202/202 241/241/241 242/242/242
f 165/165/165 203/203/203 243/243/243
f 165/165/165 243/243/243 244/244/244
f 166/166/166 165/165/165 245/245/245
f 166/166/166 245/245/245 246/246/246
f 146/146/146 145/145/145 247/247/247
f 146/146/146 247/247/247 248/248/248
f 253/253/253 251/251/251 252/252/252
f 251/251/251 253/253/253 254/254/254
f 251/251/251 254/254/254 250/250/250
f 250/250/250 254/254/254 255/255/255
f 250/250/250 255/255/255 249/249/249
f 249/249/249 255/255/255 256/256/256
f 249/249/249 256/256/256 262/262/262
f 262/262/262 256/256/256 257/257/257
f 262/262/262 257/257/257 261/261/261
f 261/261/261 257/257/257 258/258/258
f 261/261/261 258/258/258 260/260/260
f 260/260/260 258/258/258 259/259/259
f 276/276/276 274/274/274 275/275/275
f 274/274/274 276/276/276 273/273/273
f 273/273/273 276/276/276 263/263/263
f 273/273/273 263/263/263 272/272/272
f 272/272/272 263/263/263 264/264/264
f 272/272/272 264/264/264 271/271/271
f 271/271/271 264/264/264 265/265/265
f 271/271/271 265/265/265 270/270/270
f 270/270/270 265/265/265 266/266/266
f 270/270/270 266/266/266 269/269/269
f 269/269/269 266/266/266 267/267/267
f 269/269/269 267/267/267 268/268/268
f 277/277/277 278/278/278 279/279/279
f 280/280/280 281/281/281 282/282/282
f 283/283/283 284/284/284 285/285/285
f 286/286/286 287/287/287 288/288/288
f 289/289/289 286/286/286 288/288/288
f 290/290/290 291/291/291 292/292/292
f 293/293/293 294/294/294 290/290/290
f 295/295/295 296/296/296 297/297/297
f 295/295/295 298/298/298 296/296/296
f 299/299/299 300/300/300 301/301/301
f 302/302/302 303/303/303 304/304/304
f 280/280/280 305/305/305 281/281/281
f 280/280/280 302/302/302 305/305/305
f 306/306/306 307/307/307 308/308/308
f 288/288/288 287/287/287 309/309/309
f 310/310/310 289/289/289 288/288/288
f 311/311/311 312/312/312 313/313/313
f 290/290/290 294/294/294 291/291/291
f 314/314/314 293/293/293 290/290/290
f 315/315/315 279/279/279 316/316/316
f 317/317/317 318/318/318 293/293/293
f 296/296/296 319/319/319 320/320/320
f 302/302/302 321/321/321 305/305/305
f 297/297/297 296/296/296 322/322/322
f 323/323/323 324/324/324 325/325/325
f 323/323/323 325/325/325 326/326/326
f 311/311/311 279/279/279 278/278/278
f 311/311/311 278/278/278 327/327/327
f 328/328/328 324/324/324 329/329/329
f 328/328/328 329/329/329 330/330/330
f 331/331/331 328/328/328 332/332/332
f 331/331/331 332/332/332 333/333/333
f 301/301/301 331/331/331 333/333/333
f 301/301/301 333/333/333 299/299/299
f 312/312/312 311/311/311 334/334/334
f 312/312/312 334/334/334 335/335/335
f 316/316/316 336/336/336 301/301/301
f 316/316/316 301/301/301 337/337/337
f 307/307/307 312/312/312 338/338/338
f 307/307/307 338/338/338 339/339/339
f 340/340/340 308/308/308 307/307/307
f 340/340/340 307/307/307 339/339/339
f 303/303/303 302/302/302 308/308/308
f 303/303/303 308/308/308 341/341/341
f 342/342/342 325/325/325 285/285/285
f 342/342/342 285/285/285 343/343/343
f 285/285/285 298/298/298 295/295/295
f 285/285/285 295/295/295 344/344/344
f 282/282/282 345/345/345 346/346/346
f 282/282/282 346/346/346 280/280/280
f 302/302/302 280/280/280 346/346/346
f 302/302/302 346/346/346 308/308/308
f 345/345/345 309/309/309 287/287/287
f 345/345/345 287/287/287 346/346/346
f 308/308/308 346/346/346 287/287/287
f 308/308/308 287/287/287 306/306/306
f 287/287/287 286/286/286 313/313/313
f 287/287/287 313/313/313 306/306/306
f 306/306/306 313/313/313 312/312/312
f 306/306/306 312/312/312 307/307/307
f 286/286/286 289/289/289 311/311/311
f 286/286/286 311/311/311 313/313/313
f 289/289/289 310/310/310 292/292/292
f 289/289/289 292/292/292 291/291/291
f 289/289/289 291/291/291 279/279/279
f 289/289/289 279/279/279 311/311/311
f 291/291/291 294/294/294 316/316/316
f 291/291/291 316/316/316 279/279/279
f 294/294/294 293/293/293 336/336/336
f 294/294/294 336/336/336 316/316/316
f 293/293/293 314/314/314 347/347/347
f 293/293/293 347/347/347 317/317/317
f 293/293/293 318/318/318 348/348/348
f 293/293/293 348/348/348 336/336/336
f 336/336/336 348/348/348 331/331/331
f 336/336/336 331/331/331 301/301/301
f 317/317/317 347/347/347 349/349/349
f 317/317/317 349/349/349 350/350/350
f 318/318/318 317/317/317 350/350/350
f 318/318/318 350/350/350 351/351/351
f 318/318/318 351/351/351 352/352/352
f 318/318/318 352/352/352 348/348/348
f 348/348/348 352/352/352 328/328/328
f 348/348/348 328/328/328 331/331/331
f 349/349/349 353/353/353 354/354/354
f 349/349/349 354/354/354 350/350/350
f 350/350/350 354/354/354 355/355/355
f 350/350/350 355/355/355 351/351/351
f 351/351/351 355/355/355 356/356/356
f 351/351/351 356/356/356 352/352/352
f 352/352/352 356/356/356 324/324/324
f 352/352/352 324/324/324 328/328/328
f 353/353/353 357/357/357 320/320/320
f 353/353/353 320/320/320 354/354/354
f 354/354/354 320/320/320 319/319/319
f 354/354/354 319/319/319 355/355/355
f 356/356/356 355/355/355 319/319/319
f 356/356/356 319/319/319 358/358/358
f 324/324/324 356/356/356 358/358/358
f 324/324/324 358/358/358 325/325/325
f 357/357/357 322/322/322 296/296/296
f 357/357/357 296/296/296 320/320/320
f 358/358/358 319/319/319 296/296/296
f 358/358/358 296/296/296 298/298/298
f 325/325/325 358/358/358 298/298/298
f 325/325/325 298/298/298 285/285/285
f 342/342/342 343/343/343 359/359/359
f 342/342/342 359/359/359 360/360/360
f 323/323/323 326/326/326 361/361/361
f 323/323/323 361/361/361 362/362/362
f 330/330/330 329/329/329 363/363/363
f 330/330/330 363/363/363 364/364/364
f 333/333/333 332/332/332 365/365/365
f 333/333/333 365/365/365 366/366/366
f 299/299/299 333/333/333 367/367/367
f 299/299/299 367/367/367 368/368/368
f 300/300/300 299/299/299 369/369/369
f 300/300/300 369/369/369 370/370/370
f 278/278/278 277/277/277 371/371/371
f 278/278/278 371/371/371 372/372/372
f 327/327/327 278/278/278 373/373/373
f 327/327/327 373/373/373 374/374/374
f 335/335/335 334/334/334 375/375/375
f 335/335/335 375/375/375 376/376/376
f 339/339/339 338/338/338 377/377/377
f 339/339/339 377/377/377 378/378/378
f 340/340/340 339/339/339 379/379/379
f 340/340/340 379/379/379 380/380/380
f 303/303/303 341/341/341 381/381/381
f 303/303/303 381/381/381 382/382/382
f 304/304/304 303/303/303 383/383/383
f 304/304/304 383/383/383 384/384/384
f 284/284/284 283/283/283 385/385/385
f 284/284/284 385/385/385 386/386/386
f 391/391/391 389/389/389 390/390/390
f 389/389/389 391/391/391 392/392/392
f 389/389/389 392/392/392 388/388/388
f 388/388/388 392/392/392 393/393/393
f 388/388/388 393/393/393 387/387/387
f 387/387/387 393/393/393 394/394/394
f 387/387/387 394/394/394 400/400/400
f 400/400/400 394/394/394 395/395/395
f 400/400/400 395/395/395 399/399/399
f 399/399/399 395/395/395 396/396/396
f 399/399/399 396/396/396 398/398/398
f 398/398/398 396/396/396 397/397/397
f 414/414/414 412/412/412 413/413/413
f 412/412/412 414/414/414 411/411/411
f 411/411/411 414/414/414 401/401/401
f 411/411/411 401/401/401 410/410/410
f 410/410/410 401/401/401 402/402/402
f 410/410/410 402/402/402 409/409/409
f 409/409/409 402/402/402 403/403/403
f 409/409/409 403/403/403 408/408/408
f 408/408/408 403/403/403 404/404/404
f 408/408/408 404/404/404 407/407/407
f 407/407/407 404/404/404 405/405/405
f 407/407/407 405/405/405 406/406/406